<svg xmlns="http://www.w3.org/2000/svg" viewBox="0 0 900.86 471.23"><defs><style>.aab2d6e2-d28a-48c5-9fcd-1a5787f0008a,.bf55ba90-864d-4c6a-839c-77227d9b7ae2{fill:#eb8878;}.a7ae5de1-c918-4698-b4d0-98186f7c601c,.aab2d6e2-d28a-48c5-9fcd-1a5787f0008a,.ad689a56-8d9e-4d51-8a85-1cf68b21c314,.aea20e2c-7a7b-4301-a02c-ae69cccc59b9,.b915df7a-2162-4f19-bf31-69bd3ef717a6,.bed67612-1f76-4328-aa72-97648c43b20b,.bf55ba90-864d-4c6a-839c-77227d9b7ae2,.e03d12f7-f1ae-49e0-8dbe-6c520b2bbccc,.e9d5e5c1-4fe0-41ae-a8ad-61e070bf729f,.ec856ecc-f967-4752-b488-18c0952f8c64,.efd45a66-b0c9-41b5-ad6f-0b83788da545,.f0bffaf3-384d-4d72-b831-8c94158ce101,.f2ba85b0-5bb5-4d97-91f4-27db9432270a,.f9801dbd-0141-479c-879e-91e34a9d8e49,.fc6f8047-feff-470f-a65c-d56b56af41b3,.fcc1a238-9b7a-4021-9004-f19564cf2a3f,.ff964d8b-7712-41c7-9137-528012738282{stroke:#1d1d1b;}.a7ae5de1-c918-4698-b4d0-98186f7c601c,.ad689a56-8d9e-4d51-8a85-1cf68b21c314,.aea20e2c-7a7b-4301-a02c-ae69cccc59b9,.b915df7a-2162-4f19-bf31-69bd3ef717a6,.bed67612-1f76-4328-aa72-97648c43b20b,.bf55ba90-864d-4c6a-839c-77227d9b7ae2,.e03d12f7-f1ae-49e0-8dbe-6c520b2bbccc,.ec856ecc-f967-4752-b488-18c0952f8c64,.f2ba85b0-5bb5-4d97-91f4-27db9432270a,.f9801dbd-0141-479c-879e-91e34a9d8e49{stroke-miterlimit:10;}.aab2d6e2-d28a-48c5-9fcd-1a5787f0008a,.ad689a56-8d9e-4d51-8a85-1cf68b21c314,.aea20e2c-7a7b-4301-a02c-ae69cccc59b9,.b915df7a-2162-4f19-bf31-69bd3ef717a6,.bed67612-1f76-4328-aa72-97648c43b20b,.bf55ba90-864d-4c6a-839c-77227d9b7ae2,.e03d12f7-f1ae-49e0-8dbe-6c520b2bbccc,.ec856ecc-f967-4752-b488-18c0952f8c64,.efd45a66-b0c9-41b5-ad6f-0b83788da545,.f0bffaf3-384d-4d72-b831-8c94158ce101,.f2ba85b0-5bb5-4d97-91f4-27db9432270a,.f9801dbd-0141-479c-879e-91e34a9d8e49,.fc6f8047-feff-470f-a65c-d56b56af41b3,.fcc1a238-9b7a-4021-9004-f19564cf2a3f,.ff964d8b-7712-41c7-9137-528012738282{stroke-width:3px;}.e03d12f7-f1ae-49e0-8dbe-6c520b2bbccc{fill:#b6563a;}.a7ae5de1-c918-4698-b4d0-98186f7c601c,.aea20e2c-7a7b-4301-a02c-ae69cccc59b9,.e9d5e5c1-4fe0-41ae-a8ad-61e070bf729f,.f2ba85b0-5bb5-4d97-91f4-27db9432270a,.fcc1a238-9b7a-4021-9004-f19564cf2a3f{fill:none;}.aab2d6e2-d28a-48c5-9fcd-1a5787f0008a,.aea20e2c-7a7b-4301-a02c-ae69cccc59b9,.e9d5e5c1-4fe0-41ae-a8ad-61e070bf729f,.efd45a66-b0c9-41b5-ad6f-0b83788da545,.f0bffaf3-384d-4d72-b831-8c94158ce101,.fc6f8047-feff-470f-a65c-d56b56af41b3,.fcc1a238-9b7a-4021-9004-f19564cf2a3f{stroke-linecap:round;}.aab2d6e2-d28a-48c5-9fcd-1a5787f0008a,.e9d5e5c1-4fe0-41ae-a8ad-61e070bf729f,.efd45a66-b0c9-41b5-ad6f-0b83788da545,.f0bffaf3-384d-4d72-b831-8c94158ce101,.fc6f8047-feff-470f-a65c-d56b56af41b3,.fcc1a238-9b7a-4021-9004-f19564cf2a3f,.ff964d8b-7712-41c7-9137-528012738282{stroke-linejoin:round;}.e9d5e5c1-4fe0-41ae-a8ad-61e070bf729f{stroke-width:6px;}.bed67612-1f76-4328-aa72-97648c43b20b,.f0bffaf3-384d-4d72-b831-8c94158ce101{fill:#4f5a9e;}.fc6f8047-feff-470f-a65c-d56b56af41b3{fill:#f0977e;}.a1a36c46-26e8-4e7e-80cb-a212a48832c9{fill:#1d1d1b;}.f9801dbd-0141-479c-879e-91e34a9d8e49{fill:#27283b;}.efd45a66-b0c9-41b5-ad6f-0b83788da545{fill:#ba3b3a;}.ad689a56-8d9e-4d51-8a85-1cf68b21c314{fill:#ea9684;}.b915df7a-2162-4f19-bf31-69bd3ef717a6{fill:#ec9687;}.b92aa54f-7725-409a-8984-d4540e8adc8b{fill:#fff;}.ad095eeb-e957-4e7f-88cc-6a662f9cd030{fill:#b63d39;}.ec856ecc-f967-4752-b488-18c0952f8c64,.ff964d8b-7712-41c7-9137-528012738282{fill:#eb9685;}.a7ae5de1-c918-4698-b4d0-98186f7c601c{stroke-width:9px;}</style></defs><g id="e26c5203-a5d6-4e1d-9e0a-416d4459f6e6" data-name="Calque 2"><g id="ea28e948-16f7-43db-862c-03ac0498008f" data-name="Calque 3"><path class="bf55ba90-864d-4c6a-839c-77227d9b7ae2" d="M147.87,139.55a17.9,17.9,0,0,1-23.09-15.63c-.23-2.75,0-4.42,2.26-7.67.9-1.26,2.82-3.33,4.31-3.77,4.5-1.36,6.81-3.24,11.1-1.31-4.41-17.62-6.39-31.43-10.8-49.05-.66-2.61-1.29-5.46-.17-7.91,1.31-2.85,4.58-4.2,7.62-5,8.16-2.13,16.74-2.15,25-3.85,8.08-1.66,15.77-4.9,23.88-6.38,5.31-1,11.11-1.08,15.74,1.7,2.89,1.73,5.06,4.44,7,7.19,9.6,13.47,15.73,29.19,19.41,45.32s5,32.7,5.52,49.24a27,27,0,0,1-.76,9.11,21,21,0,0,1-5.73,8.45c-13.45,13-34.6,15.7-52.62,10.55a31,31,0,0,1-10.44-4.78,33.25,33.25,0,0,1-7-8,113.85,113.85,0,0,1-9.83-18.51Z"/><path class="e03d12f7-f1ae-49e0-8dbe-6c520b2bbccc" d="M124.62,119.78c-8.94-9-17.16-20-21.82-31.77-2.15-5.41-3.78-11.5-1.78-17,2.3-6.32,8.9-10.09,15.43-11.66.32-7.11.66-14.32,2.79-21.12s6.3-13.25,12.59-16.6c5.22-2.79,11.4-3.2,17.3-2.68,1.58.14,3.29.31,4.62-.55a6.87,6.87,0,0,0,1.95-2.32c3.9-6.25,8.91-12.64,16.1-14.24,8.48-1.9,17,3.65,22.36,10.45A3.8,3.8,0,0,0,196.27,14a3.49,3.49,0,0,0,2.24-.66,29.42,29.42,0,0,0,9.75-9.47,4.12,4.12,0,0,1,1.58-1.72,3.14,3.14,0,0,1,3.1.75c3.08,2.44,3.85,6.73,4.27,10.64a63.4,63.4,0,0,1,.21,15.14,42.25,42.25,0,0,1-13.5,25.27,50.13,50.13,0,0,1-26.11,12.19c-12.69,2-25.59-.58-38.12-3.33-1.54-.34-3.81-.15-3.84,1.42a2.78,2.78,0,0,0,.45,1.33A77.48,77.48,0,0,1,145,113.86a1.43,1.43,0,0,1-.24.71c-.38.46-1.11.28-1.67.07-3.46-1.33-7.1-2.49-10.79-2.26s-5.49,2.76-7.07,6.11Z"/><path class="fcc1a238-9b7a-4021-9004-f19564cf2a3f" d="M191.82,91.38a24.94,24.94,0,0,0,1.43,5.49l5.11,14.87a6.1,6.1,0,0,0,1.11,2.2,5.82,5.82,0,0,0,2.55,1.38,44.41,44.41,0,0,0,8.83,1.9c2.05.23,4.33.42,5.73,1.94a1.94,1.94,0,0,1,.58,1.9,2.28,2.28,0,0,1-.75.94,27.77,27.77,0,0,1-6.24,3.7l-13.54,6.54"/><path class="fcc1a238-9b7a-4021-9004-f19564cf2a3f" d="M193.24,78.83a29.68,29.68,0,0,0,18.32,3.77"/><path class="fcc1a238-9b7a-4021-9004-f19564cf2a3f" d="M172.36,79.55A131.14,131.14,0,0,0,159,96.83"/><path class="fcc1a238-9b7a-4021-9004-f19564cf2a3f" d="M208.84,144.24l-29,.91"/><path class="e9d5e5c1-4fe0-41ae-a8ad-61e070bf729f" d="M171.07,95.65a32.68,32.68,0,0,1,6.29,18.56"/><path class="e9d5e5c1-4fe0-41ae-a8ad-61e070bf729f" d="M208.47,91.17A36.76,36.76,0,0,1,213.39,108"/><path class="aea20e2c-7a7b-4301-a02c-ae69cccc59b9" d="M136.8,121.71a15.52,15.52,0,0,1,6.19,4,9.14,9.14,0,0,1,2.46,6.79"/><path class="bed67612-1f76-4328-aa72-97648c43b20b" d="M63.87,403.1l0,63H274.47l0-47s52.05-17.35,32.78-148.6a82.86,82.86,0,0,0-21.12-44.68c-12.24-13.09-29.26-22.66-64.83-30.72-81.54-4.12-119-7.72-152.82,9.83C29.75,217.31,9.16,300.91,63.87,403.1Z"/><path class="fc6f8047-feff-470f-a65c-d56b56af41b3" d="M149.71,141.27a39.47,39.47,0,0,1,.89,13.37,115.17,115.17,0,0,1-13.35,46.59,6.07,6.07,0,0,0-1,2.87,5.43,5.43,0,0,0,.6,2.06c4.47,9.69,14.3,16.09,24.61,18.8s21.19,2.23,31.82,1.36c8.89-.73,18.17-1.86,25.52-6.92a4.38,4.38,0,0,0,1.17-1.06,4.7,4.7,0,0,0,.39-3.13q-2.5-23.29-3.5-46.71a141.24,141.24,0,0,1-29,9.94c-2.84.65-5.85,1.2-8.64.32-2.42-.76-4.38-2.52-6.2-4.29a107.66,107.66,0,0,1-22.48-31.41Z"/><path class="aab2d6e2-d28a-48c5-9fcd-1a5787f0008a" d="M154.24,234.85c4.49-3.35,6.65-8.92,8.53-14.2,4.92-13.79,9.54-28.86,5.08-42.81-1.4-4.41-3.67-8.5-5.5-12.75a67.76,67.76,0,0,1-4.69-16.34,5.9,5.9,0,0,1,.64-3.87c1.77-3.13,5.07-2.42,7.6-1.22a24.32,24.32,0,0,1,13,16.2c15.13-10.42,29-23.4,46.48-29.12,2.08-.68,4.32-1.26,6.45-.41a3.87,3.87,0,0,1,2.46,2.79c.43,2.23-1.45,3.9-3.15,5.2q-17.66,13.44-36.45,25.3l12.15-7.29a17.14,17.14,0,0,1,5.26-2.4c2.77-.58,6.1.41,6.63,4,.24,1.65,0,3.69-1.33,4.65-3.37,2.37-6.39,3.14-9.47,5.06-2.79,1.73-6.07,2.47-7.53,5.24-.95,1.6,8.69-5.37,13.34-7.5a9.77,9.77,0,0,1,4.05-1.13,6.89,6.89,0,0,1,5.57,3.7c1.17,2,2.76,4.44,2,6.66-.4,1.24-.37,2.65-3.18,3.63a3,3,0,0,1-1.5.09c-6.6-1-11-.32-16.17,3.84a18.3,18.3,0,0,1,14.17-3.79,7.34,7.34,0,0,1,5.24,3.52c1.94,3.45-.2,6.73-2.62,9.07a27.86,27.86,0,0,1-6.29,4.6,10.47,10.47,0,0,0-3.26,2.2,7.7,7.7,0,0,0-1.21,2.26c-1.72,4.47-2.44,9.5-5.5,13.19-4.1,4.93-9.57,3-17.34,2.1,3.15.21,4.3,4.2,4.53,7.34a129.45,129.45,0,0,1-1.49,30.77A38.12,38.12,0,0,1,154.89,237a4,4,0,0,1-.65-2.12Z"/><path class="a1a36c46-26e8-4e7e-80cb-a212a48832c9" d="M92,265.67l6.28,14c2.08,4.64,4.49,9.25,6.18,14.05s.9,9.89.57,14.81a133.25,133.25,0,0,1-1.75,15.32c-.29,1.58,2.12,2.25,2.41.67a120.37,120.37,0,0,0,1.55-12.11c.34-4.1.71-8.25.75-12.37s-1.2-7.46-2.81-11.05q-2.56-5.75-5.15-11.49l-5.87-13.09c-.66-1.47-2.82-.2-2.16,1.26Z"/><path class="fcc1a238-9b7a-4021-9004-f19564cf2a3f" d="M274.45,419.1s-70.32,28.46-149.74-21.24C121.93,352.81,136.8,335,136.8,335l17.44,10.07s27.74-6.2,80.17,7.74c9.84-37.16,9.07-72.57,25.33-87.77"/><path class="f0bffaf3-384d-4d72-b831-8c94158ce101" d="M99.91,322.31c8.51-30.39,55.16-90.59,55.16-90.59s22.45,16.65,39.09,15.1c1.94,28.26-29.91,127.41-87.87,166.07,0,0-29.51,13.53-42.93-10.73l1.28-.51"/><path class="fcc1a238-9b7a-4021-9004-f19564cf2a3f" d="M233.66,352.4c17.81,13.68,24,19.36,24,19.36"/><path class="f9801dbd-0141-479c-879e-91e34a9d8e49" d="M595.15,28.43s52.69-33,90.68,17.4a24.79,24.79,0,0,1,4.9,14.29c1.13,44.3,7.38,56.81,7.38,56.81s0,6.94,7.52,11.57,28.92,26,21.4,70S669.77,232,669.77,232l-96.38-2.89s-19.18-8.61-31.14-33.46a84.67,84.67,0,0,1-7.55-45.85c1.29-11.85,2.13-17.9,20-39.84C554.67,80.49,550.62,46.94,595.15,28.43Z"/><path class="efd45a66-b0c9-41b5-ad6f-0b83788da545" d="M591.9,194.38h56s19.09-18.07,46-12.44c26.46,15.19,42.94,37.75,72.44,107.16,43.82-6.08,49.89-9.55,49.89-9.55s-4.34,23,8.24,36c-16,13.88-37.3,40.78-77.21,40.78-13.89-3.47-52.49-28.64-56.83-73.75-1.74,33-12.58,114.52,5.64,177,58.45,6.51-94.11,2.69-163.59,6.5-.83-31,5.07-118,6.39-133.94a3.57,3.57,0,0,0-1.27-3l-3-2.5S526,347.66,496,346.79c-9.54,0-69.16-29.06-86.85-54.66,0-7.81-3.38-16.05,7.9-29.5,24.72,6.94,47.72,12.58,63.33,20,13-21.26,53.51-95.88,85.1-101.74C573.68,180.64,583.23,180.35,591.9,194.38Z"/><path class="ad689a56-8d9e-4d51-8a85-1cf68b21c314" d="M596.48,156.89l1.3,32.75-20.17,11.07s-4.55,24.24,13,35.29a28.27,28.27,0,0,0,26.52,1.61c31.07-13.83,37-19.39,42.43-46-7.81-7.59-10.41-2.82-10.19-48.81S596.48,156.89,596.48,156.89Z"/><path class="b915df7a-2162-4f19-bf31-69bd3ef717a6" d="M599,44.15S575.83,61.5,575.26,82c-.41,14.4.46,41.17,1,55.88A36.68,36.68,0,0,0,597.45,170a40.33,40.33,0,0,0,13.67,3.42c25.45-.61,35.86-3.21,44.82-19.12s13-25.16,13-25.16,16.19,2.6,15.9-17.93-13.46-9-15.61-8.1C666.14,104.45,634,101.13,599,44.15Z"/><path class="a1a36c46-26e8-4e7e-80cb-a212a48832c9" d="M593.44,90.3a27.29,27.29,0,0,0-.69,17.73c.7,2.3,4.32,1.32,3.62-1a23.86,23.86,0,0,1,.69-15.73A1.89,1.89,0,0,0,595.75,89a1.92,1.92,0,0,0-2.31,1.31Z"/><path class="a1a36c46-26e8-4e7e-80cb-a212a48832c9" d="M632.73,90.07c-2.61,5.68-1.59,11.87-.16,17.72.57,2.35,4.19,1.35,3.62-1C635,102.07,633.83,96.6,636,92a1.91,1.91,0,0,0-.67-2.56,1.87,1.87,0,0,0-2.56.67Z"/><path class="a1a36c46-26e8-4e7e-80cb-a212a48832c9" d="M607.48,91.68q-.08,6.45-.43,12.9a17.67,17.67,0,0,1-.62,4.8,3,3,0,0,1-3,2.1,21,21,0,0,0-5.46.91c-1.6.58-3.51,1.36-4.28,3-1.49,3.2,2.34,6.73,4.7,8.31a14.66,14.66,0,0,0,10.78,2.19c2.37-.43,1.37-4-1-3.62a10.87,10.87,0,0,1-9.47-3.13c-.4-.41-1.63-1.57-1.57-2.2-.11.09-.1.08,0-.05l.44-.26a11.87,11.87,0,0,1,1.14-.54c2.07-.82,4.19-.65,6.33-1.07,4.19-.8,5.32-4.86,5.58-8.56.34-4.92.49-9.85.54-14.77,0-2.42-3.73-2.42-3.75,0Z"/><path class="a1a36c46-26e8-4e7e-80cb-a212a48832c9" d="M586,89c.1.59,0,.36.42,0a12.3,12.3,0,0,1,1-.74A23.28,23.28,0,0,1,589.7,87a21.33,21.33,0,0,1,4.3-1.72,22.24,22.24,0,0,1,9.46-.68,1.94,1.94,0,0,0,2.31-1.31A1.89,1.89,0,0,0,604.46,81,26.61,26.61,0,0,0,591.78,82a26,26,0,0,0-5.63,2.68c-2,1.25-4.13,2.67-3.72,5.29a1.88,1.88,0,0,0,2.3,1.31A1.91,1.91,0,0,0,586,89Z"/><path class="a1a36c46-26e8-4e7e-80cb-a212a48832c9" d="M626.51,84.71c3.32-.4,6.52.33,9.72,1.14a13,13,0,0,1,3.88,1.39,12.25,12.25,0,0,1,2.89,3,1.94,1.94,0,0,0,2.57.67,1.88,1.88,0,0,0,.67-2.56,19.55,19.55,0,0,0-3.55-3.88,13.12,13.12,0,0,0-4.83-2.1c-3.69-1-7.52-1.91-11.35-1.44a1.93,1.93,0,0,0-1.87,1.87,1.89,1.89,0,0,0,1.87,1.88Z"/><path d="M637.81,143.82c0,3.83-9.15,13.88-19.91,13.88s-18.87-5.17-19-9c-.45-11.83,11.39-5,21.58-9.77C636.86,131.26,637.81,140,637.81,143.82Z"/><path class="b92aa54f-7725-409a-8984-d4540e8adc8b" d="M602.22,141.88c4.08-1.43,4.74-.41,12.73-1.33,4-.46,11.63-4.91,13.6-4.15a.63.63,0,0,1,.38.43c.56,1.83-3.55,3.76-8.17,6.68a14.82,14.82,0,0,1-9.23,2.17c-1.26-.11-2.4-.24-3.4-.38-2.89-.4-5.35-.33-5.87-3.19Z"/><path class="ad095eeb-e957-4e7f-88cc-6a662f9cd030" d="M631.26,152.7a21.82,21.82,0,0,1-13.44,5c-6.47.16-10-1.74-10-3.07-.11-1.95,3.86-2.58,10-2.58,2.15,0,3.85-.07,7.17,0,4.24.06,6.37.16,6.4.51C631.4,152.6,631.3,152.67,631.26,152.7Z"/><path class="f2ba85b0-5bb5-4d97-91f4-27db9432270a" d="M553.3,224.32l-28.91,61.17s-11.4,30.3,16.36,45.05"/><path class="ec856ecc-f967-4752-b488-18c0952f8c64" d="M821.46,279.58c2.84-1.26,3.67-1.32,6.43-2.73,7.36-3.74,16.21-3.08,24.19-1s15.61,5.5,23.71,7.08c3.64.72,7.37,1.06,10.87,2.26a3.49,3.49,0,0,1,1.67,1,3,3,0,0,1,0,3.15c-1.56,3.08-5.16,4.52-8.56,5.12a30.55,30.55,0,0,1-15.57-1.35c6.36,10.13,18,15.36,29,20.15a15.38,15.38,0,0,1,4.24,2.43,5.26,5.26,0,0,1,1.93,4.32c-.28,2.57-3.14,4.22-5.72,4.11s-4.92-1.49-7.12-2.85c-7.6-4.72-15.12-9.74-21.31-16.2,5.61,8.76,16.6,12.29,24.15,19.44a10.75,10.75,0,0,1,2.89,3.91,4.74,4.74,0,0,1-.54,4.65,4.81,4.81,0,0,1-4.52,1.38,12.46,12.46,0,0,1-4.49-2c-9.06-5.82-16.53-13.77-23.72-21.78,6.11,9.57,15.49,16.52,22.86,25.16a2.32,2.32,0,0,1,.74,1.55,2,2,0,0,1-1.07,1.39,6.8,6.8,0,0,1-6.06,0,19.93,19.93,0,0,1-5.09-3.64c-5.6-5-11.23-10-15.85-15.84q9.57,10.48,18.73,21.36a7.78,7.78,0,0,1-7,2,17.36,17.36,0,0,1-6.81-3.11,47,47,0,0,1-13.79-14.79c-1.55-2.63-2.85-5.43-4.81-7.77s-4.76-4.21-7.81-4.16c-2.62,0-5.12,1.47-7.73,1.23a8,8,0,0,1-5.66-3.7,18.47,18.47,0,0,1-2.41-6.51,54.73,54.73,0,0,1-.82-17.13c.26-2.33.86-4.94,2.86-6.17Z"/><path class="ff964d8b-7712-41c7-9137-528012738282" d="M415.06,265.13a21.67,21.67,0,0,0-6.88,21.27l.6,2a19.18,19.18,0,0,0-7.08.29c-10.45,2.17-18.74,9.92-28.38,14.47a49.47,49.47,0,0,1-37.62,1.71c-.51-6.92,9.7-4.57,12.37-4.77,7.25-.54,9.33.39,16.42-1.26a98.33,98.33,0,0,1-21,1.12c-2.88-.16-5.87-.48-8.31-2l-.08-.05c-6.68-4.26-5.43-7.56,2.46-6.89,10.55.89,21.8.89,31.94-1.07a180.77,180.77,0,0,1-28.49,1c-5.32-.24-11.16-1-14.76-4.89-.68-.74-1.23-2-.47-2.67a2.17,2.17,0,0,1,1.49-.34q11.16.3,22.26,1.45c5.73.6,11.6,1.36,17.18-.07A85.77,85.77,0,0,1,337.13,282c-2.74-.72-5.72-1.79-7.1-4.27a2.2,2.2,0,0,1,.07-2.68,2.54,2.54,0,0,1,1.76-.43c9.4,0,18.91,2.45,28.1.47a52.7,52.7,0,0,0,10-3.52c3.23-1.42,6.42-2.91,9.56-4.5a17.91,17.91,0,0,0,5.62-3.95c-8.17.69-16.38,1.37-24.55.7-2.89-.23-5.87-.68-8.28-2.29s-4.06-4.67-3.2-7.43a2.91,2.91,0,0,1,1-1.49,3.88,3.88,0,0,1,2.2-.6c4-.25,8,0,12.05,0,8.42-.08,16.77-1.6,25.19-2,2.52-.13,5.16-.13,7.38,1.06a18.09,18.09,0,0,1,4.2,3.67,42.58,42.58,0,0,0,12.3,8.81,3.28,3.28,0,0,1,1.64,1.66Z"/><line class="a7ae5de1-c918-4698-b4d0-98186f7c601c" x1="0.02" y1="466.73" x2="816.1" y2="463.63"/></g></g></svg>