<svg width="80" height="79" viewBox="0 0 80 79" fill="none" xmlns="http://www.w3.org/2000/svg">
<path d="M11.5951 11.5488C18.2808 4.87461 27.1357 0.816441 36.5561 0.110527C45.9765 -0.595388 55.3384 2.09712 62.9425 7.69996C70.5481 13.3033 75.8942 21.4459 78.0118 30.6522C80.1295 39.8585 78.8782 49.5192 74.4853 57.8806L77.3228 68.4758L77.3222 68.4764C77.9818 70.9549 77.2699 73.5963 75.4546 75.4079C73.6428 77.2232 71.0014 77.9351 68.523 77.2755L57.9278 74.438L57.9272 74.4386C52.2644 77.4427 45.9492 79.0095 39.539 79C37.5439 78.9994 35.5513 78.855 33.5767 78.5688C23.8919 77.0981 15.0992 72.0815 8.90355 64.4935C2.70856 56.9047 -0.446365 47.2858 0.050827 37.5022C0.548088 27.7186 4.66267 18.4689 11.5948 11.5483L11.5951 11.5488ZM7.21355 42.4376C7.86112 49.6716 10.9258 56.4763 15.9136 61.7556C20.9018 67.0348 27.5219 70.4802 34.7082 71.5366C41.8936 72.5931 49.2255 71.1993 55.5208 67.579C56.0686 67.2687 56.6879 67.1082 57.3169 67.1124C57.6271 67.0769 57.9404 67.0769 58.2507 67.1124L70.2469 70.3449L67.0144 58.3486C66.7667 57.4269 66.896 56.445 67.3734 55.6189C70.7838 49.7276 72.2474 42.9096 71.5547 36.1377C70.8626 29.3655 68.0497 22.9847 63.5179 17.9049C58.9855 12.8259 52.9654 9.30663 46.3165 7.8497C39.6669 6.3928 32.7269 7.07224 26.4859 9.7912C20.2452 12.5102 15.0218 17.1305 11.5615 22.993C8.10054 28.8549 6.57927 35.6602 7.21361 42.4372L7.21355 42.4376Z" fill="white"/>
<path d="M16.3851 39.9129C16.3851 42.8886 18.7974 45.3004 21.7725 45.3004C24.7477 45.3004 27.16 42.8886 27.16 39.9129C27.16 36.9378 24.7477 34.5254 21.7725 34.5254C18.7974 34.5254 16.3851 36.9378 16.3851 39.9129Z" fill="white"/>
<path d="M34.5258 39.9129C34.5258 42.8886 36.9382 45.3004 39.9133 45.3004C42.8884 45.3004 45.3008 42.8886 45.3008 39.9129C45.3008 36.9378 42.8884 34.5254 39.9133 34.5254C36.9382 34.5254 34.5258 36.9378 34.5258 39.9129Z" fill="white"/>
<path d="M52.6665 39.9129C52.6665 42.8886 55.0789 45.3004 58.054 45.3004C61.0291 45.3004 63.4415 42.8886 63.4415 39.9129C63.4415 36.9378 61.0291 34.5254 58.054 34.5254C55.0789 34.5254 52.6665 36.9378 52.6665 39.9129Z" fill="white"/>
</svg>
