<?xml version="1.0" encoding="utf-8"?>
<svg id="Layer_1" data-name="Layer 1" xmlns="http://www.w3.org/2000/svg" viewBox="0 0 241.51 200.82"><path d="M110,45.15c-2.34,4.2-2.08,5,2.83,5.6a99.76,99.76,0,0,1,43.61,15.57C166,72.64,172.87,86,163.86,98.1c-6.05,8.14-14.3,13-23.29,16.84C122.22,122.7,103.7,113.36,98,99c-4.49-11.4-7-23.14-4.67-35.36,1.19-6.42-2.12-6.87-7-6.84C71,56.94,59.82,65.65,50.89,76.34c-18.61,22.27-21.14,62.84-6.72,88.13a77.47,77.47,0,0,0,6,8.2c.73,1,1.48,2.23,2.91,1.81.23-.07-.1-1.92-.13-2.94-.19-6.1-1.44-12.14-.63-18.3.63-4.72,4.18-5,7.53-5A5.09,5.09,0,0,1,65.29,154c-1,12.62,2.5,24.73,3.87,37.08.32,2.91-.52,4.6-2.49,6.6-5.18,5.26-10.09,2.89-15.75.79-13.56-5-26.4-13.72-42.18-9-3.84,1.16-7.4-1.92-8.52-4.79-1.24-3.16,3.15-3.75,5.41-5s4.91-1,7.46-.62c7.5,1.14,15,2.24,22.51,3.39,1,.15,2.21.84,2.75-.43a2.88,2.88,0,0,0-.74-2.27c-7.2-8.44-8.4-19.33-11.44-29.31-6.48-21.29-3.53-41.61,6-61.95,10.45-22.24,26.9-35.32,50.72-38.59,8.51-1.18,15.37-1.33,20-10.65C109.59,26,123,19.71,135.86,13.57c16.92-8.09,35-14,53.54-13.54,16.36.41,33.29,2.56,47.95,11.79,1.71,1.07,5.54.86,3.64,4.39-1.59,2.95-4.25,2.49-7.15,1.08A95.82,95.82,0,0,0,186.1,7.57c-18.59,1-36,6.69-52.62,15.19A55,55,0,0,0,110,45.15Zm38.9,54.75c10.8-11.27,9.69-18.31-1.47-27.05-11.5-9-25.46-12.11-39.55-14.6-3-.53-3.16,1.29-3.49,3.12A58.12,58.12,0,0,0,111,100.5c5.68,10.25,19.19,11.71,33.06,3.39A38,38,0,0,0,148.93,99.9Z"/></svg>