<svg xmlns="http://www.w3.org/2000/svg" viewBox="0 0 816.11 471.23"><defs><style>.ebf67844-b630-45fa-8aa4-66bc2bfb6fa3{fill:#fcd49d;}.a1fe9b87-2032-4220-97bd-b0cb43896642,.a5dc319e-74da-4885-a5e0-f3aa2965f6c0,.a8a17031-1a13-4e17-b5f2-aeffba6f8f02,.abd34414-4552-41e9-acf3-f66087357285,.acf44cb9-81a6-43c0-9fa7-303cd797f767,.b28720cd-7568-4576-81a8-2dc40184c91b,.b38cdc9f-a13e-4a9a-b5ea-d13850bf76ba,.bf6df3bc-5eb6-40db-9d4d-5164194a49ca,.bfab5cfe-377a-4300-b384-cb04093f2bb0,.bfb0e7ed-5226-4d35-9275-65471c35dfa6,.e8a3aa48-347c-47da-9389-237a8a455581,.ebf67844-b630-45fa-8aa4-66bc2bfb6fa3,.edfdf36c-0042-47cd-acd7-c35b7a8f90b3,.f24318bd-2a23-4ee2-b4a0-5b80d6768991,.fc3205f2-11b2-4762-bcbc-ed61d8f40555{stroke:#1d1d1b;}.a1fe9b87-2032-4220-97bd-b0cb43896642,.a5dc319e-74da-4885-a5e0-f3aa2965f6c0,.a8a17031-1a13-4e17-b5f2-aeffba6f8f02,.abd34414-4552-41e9-acf3-f66087357285,.b38cdc9f-a13e-4a9a-b5ea-d13850bf76ba,.bfb0e7ed-5226-4d35-9275-65471c35dfa6,.e8a3aa48-347c-47da-9389-237a8a455581,.ebf67844-b630-45fa-8aa4-66bc2bfb6fa3,.edfdf36c-0042-47cd-acd7-c35b7a8f90b3{stroke-miterlimit:10;}.a1fe9b87-2032-4220-97bd-b0cb43896642,.a5dc319e-74da-4885-a5e0-f3aa2965f6c0,.a8a17031-1a13-4e17-b5f2-aeffba6f8f02,.acf44cb9-81a6-43c0-9fa7-303cd797f767,.b28720cd-7568-4576-81a8-2dc40184c91b,.b38cdc9f-a13e-4a9a-b5ea-d13850bf76ba,.bf6df3bc-5eb6-40db-9d4d-5164194a49ca,.bfab5cfe-377a-4300-b384-cb04093f2bb0,.bfb0e7ed-5226-4d35-9275-65471c35dfa6,.e8a3aa48-347c-47da-9389-237a8a455581,.ebf67844-b630-45fa-8aa4-66bc2bfb6fa3,.edfdf36c-0042-47cd-acd7-c35b7a8f90b3,.fc3205f2-11b2-4762-bcbc-ed61d8f40555{stroke-width:3px;}.a8a17031-1a13-4e17-b5f2-aeffba6f8f02,.acf44cb9-81a6-43c0-9fa7-303cd797f767{fill:#b65632;}.a5dc319e-74da-4885-a5e0-f3aa2965f6c0{fill:#faf6ec;}.bf6df3bc-5eb6-40db-9d4d-5164194a49ca,.e8a3aa48-347c-47da-9389-237a8a455581{fill:#eb8878;}.edfdf36c-0042-47cd-acd7-c35b7a8f90b3{fill:#b6563a;}.abd34414-4552-41e9-acf3-f66087357285,.bfb0e7ed-5226-4d35-9275-65471c35dfa6,.f24318bd-2a23-4ee2-b4a0-5b80d6768991,.fc3205f2-11b2-4762-bcbc-ed61d8f40555{fill:none;}.acf44cb9-81a6-43c0-9fa7-303cd797f767,.b28720cd-7568-4576-81a8-2dc40184c91b,.bf6df3bc-5eb6-40db-9d4d-5164194a49ca,.bfab5cfe-377a-4300-b384-cb04093f2bb0,.bfb0e7ed-5226-4d35-9275-65471c35dfa6,.f24318bd-2a23-4ee2-b4a0-5b80d6768991,.fc3205f2-11b2-4762-bcbc-ed61d8f40555{stroke-linecap:round;}.acf44cb9-81a6-43c0-9fa7-303cd797f767,.b28720cd-7568-4576-81a8-2dc40184c91b,.bf6df3bc-5eb6-40db-9d4d-5164194a49ca,.bfab5cfe-377a-4300-b384-cb04093f2bb0,.f24318bd-2a23-4ee2-b4a0-5b80d6768991,.fc3205f2-11b2-4762-bcbc-ed61d8f40555{stroke-linejoin:round;}.f24318bd-2a23-4ee2-b4a0-5b80d6768991{stroke-width:6px;}.a1fe9b87-2032-4220-97bd-b0cb43896642,.bfab5cfe-377a-4300-b384-cb04093f2bb0{fill:#4f5a9e;}.b28720cd-7568-4576-81a8-2dc40184c91b{fill:#f0977e;}.f912ad8c-fe19-4971-8bf5-f096dadbec88{fill:#1d1d1b;}.abd34414-4552-41e9-acf3-f66087357285{stroke-width:9px;}.b38cdc9f-a13e-4a9a-b5ea-d13850bf76ba{fill:#f5aea0;}.a10be428-748c-40c8-aea4-0b2025953d37{fill:#eda99c;}</style></defs><g id="f9cf0db4-fb5e-4802-b5b2-0ee7bfaa3e71" data-name="Calque 2"><g id="f0d98c6d-d8be-49cc-9915-bd03440a1c2b" data-name="Calque 3"><path class="ebf67844-b630-45fa-8aa4-66bc2bfb6fa3" d="M653.87,61.78s52.65-13.55,43,79.74C706.9,170.17,715,178.68,715,178.68s19.36,27.87-4.26,54.58c-23.61,26.32-46.83,22.45-46.83,22.45s-31.75-6.58-39.49-8.51-55.74-.78-55.74-.78l-19.36-19s-26.71-17.81-1.93-44.13c-2.71-29.81-8.52-51.1,10.84-67.75.38-15.48-7.36-36.77,15.09-45.29,4.94-.82,7.93-4.75,11.32-11.65a36.33,36.33,0,0,1,19-18C615.23,36.13,631.67,36.05,653.87,61.78Z"/><path class="a8a17031-1a13-4e17-b5f2-aeffba6f8f02" d="M730,284.79s-22.2-85.67-109.42-81.55c-21.68,6.2-123.87,15.49-132.13,151.75,0,0-11.36,42.84,39.74,43.87.52,23.22.91,66.71.91,66.71h19.62l4.84-.2,64.51-1.16H710l2.51-103.55S737.23,332.79,730,284.79Z"/><path class="a5dc319e-74da-4885-a5e0-f3aa2965f6c0" d="M668.84,213.65s-45-31.48-84.33,2.58c-19.93,40.26-30.67,80.52-33.22,99.1-1,33.54-3.58,150-3.58,150h71V340.68a122.12,122.12,0,0,1,9.79-48C639.18,267.8,656.34,229.93,668.84,213.65Z"/><path class="e8a3aa48-347c-47da-9389-237a8a455581" d="M147.87,139.55a17.9,17.9,0,0,1-23.09-15.63c-.23-2.75,0-4.42,2.26-7.67.9-1.26,2.82-3.33,4.31-3.77,4.5-1.36,6.81-3.24,11.1-1.31-4.41-17.62-6.39-31.43-10.8-49.05-.66-2.61-1.29-5.46-.17-7.91,1.31-2.85,4.58-4.2,7.62-5,8.16-2.13,16.74-2.15,25-3.85,8.08-1.66,15.77-4.9,23.88-6.38,5.31-1,11.11-1.08,15.74,1.7,2.89,1.73,5.06,4.44,7,7.19,9.6,13.47,15.73,29.19,19.41,45.32s5,32.7,5.52,49.24a27,27,0,0,1-.76,9.11,21,21,0,0,1-5.73,8.45c-13.45,13-34.6,15.7-52.62,10.55a31,31,0,0,1-10.44-4.78,33.25,33.25,0,0,1-7-8,113.85,113.85,0,0,1-9.83-18.51Z"/><path class="edfdf36c-0042-47cd-acd7-c35b7a8f90b3" d="M124.62,119.78c-8.94-9-17.16-20-21.82-31.77-2.15-5.41-3.78-11.5-1.78-17,2.3-6.32,8.9-10.09,15.43-11.66.32-7.11.66-14.32,2.79-21.12s6.3-13.25,12.59-16.6c5.22-2.79,11.4-3.2,17.3-2.68,1.58.14,3.29.31,4.62-.55a6.87,6.87,0,0,0,1.95-2.32c3.9-6.25,8.91-12.64,16.1-14.24,8.48-1.9,17,3.65,22.36,10.45A3.8,3.8,0,0,0,196.27,14a3.49,3.49,0,0,0,2.24-.66,29.42,29.42,0,0,0,9.75-9.47,4.12,4.12,0,0,1,1.58-1.72,3.14,3.14,0,0,1,3.1.75c3.08,2.44,3.85,6.73,4.27,10.64a63.4,63.4,0,0,1,.21,15.14,42.25,42.25,0,0,1-13.5,25.27,50.13,50.13,0,0,1-26.11,12.19c-12.69,2-25.59-.58-38.12-3.33-1.54-.34-3.81-.15-3.84,1.42a2.78,2.78,0,0,0,.45,1.33A77.48,77.48,0,0,1,145,113.86a1.43,1.43,0,0,1-.24.71c-.38.46-1.11.28-1.67.07-3.46-1.33-7.1-2.49-10.79-2.26s-5.49,2.76-7.07,6.11Z"/><path class="fc3205f2-11b2-4762-bcbc-ed61d8f40555" d="M191.82,91.38a24.94,24.94,0,0,0,1.43,5.49l5.11,14.87a6.1,6.1,0,0,0,1.11,2.2,5.82,5.82,0,0,0,2.55,1.38,44.41,44.41,0,0,0,8.83,1.9c2.05.23,4.33.42,5.73,1.94a1.94,1.94,0,0,1,.58,1.9,2.28,2.28,0,0,1-.75.94,27.77,27.77,0,0,1-6.24,3.7l-13.54,6.54"/><path class="fc3205f2-11b2-4762-bcbc-ed61d8f40555" d="M193.24,78.83a29.68,29.68,0,0,0,18.32,3.77"/><path class="fc3205f2-11b2-4762-bcbc-ed61d8f40555" d="M172.36,79.55A131.14,131.14,0,0,0,159,96.83"/><path class="fc3205f2-11b2-4762-bcbc-ed61d8f40555" d="M208.84,144.24l-29,.91"/><path class="f24318bd-2a23-4ee2-b4a0-5b80d6768991" d="M171.07,95.65a32.68,32.68,0,0,1,6.29,18.56"/><path class="f24318bd-2a23-4ee2-b4a0-5b80d6768991" d="M208.47,91.17A36.76,36.76,0,0,1,213.39,108"/><path class="bfb0e7ed-5226-4d35-9275-65471c35dfa6" d="M136.8,121.71a15.52,15.52,0,0,1,6.19,4,9.14,9.14,0,0,1,2.46,6.79"/><path class="a1fe9b87-2032-4220-97bd-b0cb43896642" d="M63.87,403.1l0,63H274.47l0-47s52.95-17.65,32.27-152a73.47,73.47,0,0,0-13.39-32.5c-13.12-17.74-29-29.72-72-39.47-81.54-4.12-119-7.72-152.82,9.83C29.75,217.31,9.16,300.91,63.87,403.1Z"/><path class="b28720cd-7568-4576-81a8-2dc40184c91b" d="M149.71,141.27a39.47,39.47,0,0,1,.89,13.37,115.17,115.17,0,0,1-13.35,46.59,6.07,6.07,0,0,0-1,2.87,5.43,5.43,0,0,0,.6,2.06c4.47,9.69,14.3,16.09,24.61,18.8s21.19,2.23,31.82,1.36c8.89-.73,18.17-1.86,25.52-6.92a4.38,4.38,0,0,0,1.17-1.06,4.7,4.7,0,0,0,.39-3.13q-2.5-23.29-3.5-46.71a141.24,141.24,0,0,1-29,9.94c-2.84.65-5.85,1.2-8.64.32-2.42-.76-4.38-2.52-6.2-4.29a107.66,107.66,0,0,1-22.48-31.41Z"/><path class="bf6df3bc-5eb6-40db-9d4d-5164194a49ca" d="M154.24,234.85c4.49-3.35,6.65-8.92,8.53-14.2,4.92-13.79,9.54-28.86,5.08-42.81-1.4-4.41-3.67-8.5-5.5-12.75a67.76,67.76,0,0,1-4.69-16.34,5.9,5.9,0,0,1,.64-3.87c1.77-3.13,5.07-2.42,7.6-1.22a24.32,24.32,0,0,1,13,16.2c15.13-10.42,29-23.4,46.48-29.12,2.08-.68,4.32-1.26,6.45-.41a3.87,3.87,0,0,1,2.46,2.79c.43,2.23-1.45,3.9-3.15,5.2q-17.66,13.44-36.45,25.3l12.15-7.29a17.14,17.14,0,0,1,5.26-2.4c2.77-.58,6.1.41,6.63,4,.24,1.65,0,3.69-1.33,4.65-3.37,2.37-6.39,3.14-9.47,5.06-2.79,1.73-6.07,2.47-7.53,5.24-.95,1.6,8.69-5.37,13.34-7.5a9.77,9.77,0,0,1,4.05-1.13,6.89,6.89,0,0,1,5.57,3.7c1.17,2,2.76,4.44,2,6.66-.4,1.24-.37,2.65-3.18,3.63a3,3,0,0,1-1.5.09c-6.6-1-11-.32-16.17,3.84a18.3,18.3,0,0,1,14.17-3.79,7.34,7.34,0,0,1,5.24,3.52c1.94,3.45-.2,6.73-2.62,9.07a27.86,27.86,0,0,1-6.29,4.6,10.47,10.47,0,0,0-3.26,2.2,7.7,7.7,0,0,0-1.21,2.26c-1.72,4.47-2.44,9.5-5.5,13.19-4.1,4.93-9.57,3-17.34,2.1,3.15.21,4.3,4.2,4.53,7.34a129.45,129.45,0,0,1-1.49,30.77A38.12,38.12,0,0,1,154.89,237a4,4,0,0,1-.65-2.12Z"/><path class="f912ad8c-fe19-4971-8bf5-f096dadbec88" d="M92,265.67l6.28,14c2.08,4.64,4.49,9.25,6.18,14.05s.9,9.89.57,14.81a133.25,133.25,0,0,1-1.75,15.32c-.29,1.58,2.12,2.25,2.41.67a120.37,120.37,0,0,0,1.55-12.11c.34-4.1.71-8.25.75-12.37s-1.2-7.46-2.81-11.05q-2.56-5.75-5.15-11.49l-5.87-13.09c-.66-1.47-2.82-.2-2.16,1.26Z"/><path class="fc3205f2-11b2-4762-bcbc-ed61d8f40555" d="M274.45,419.1s-70.32,28.46-149.74-21.24C121.93,352.81,136.8,335,136.8,335l17.44,10.07s27.74-6.2,80.17,7.74c9.84-37.16,9.07-72.57,25.33-87.77"/><path class="bfab5cfe-377a-4300-b384-cb04093f2bb0" d="M99.91,322.31c8.51-30.39,55.16-90.59,55.16-90.59s22.45,16.65,39.09,15.1c1.94,28.26-29.91,127.41-87.87,166.07,0,0-29.51,13.53-42.93-10.73l1.28-.51"/><path class="fc3205f2-11b2-4762-bcbc-ed61d8f40555" d="M233.66,352.4c17.81,13.68,24,19.36,24,19.36"/><line class="abd34414-4552-41e9-acf3-f66087357285" x1="0.02" y1="466.73" x2="816.1" y2="463.63"/><path class="b38cdc9f-a13e-4a9a-b5ea-d13850bf76ba" d="M640.58,81.94s-4.13,40,14.45,59.36c11.36-2.84,17.81-5.16,17.81,5.16-1.81,8.26-2.84,14.45-18.32,12.9-2.07,6.71-8.52,31.49-6.71,45.16,9.8,7.23,12.38,12.91,12.38,12.91s-13.42,56.77-57,54.45c-7.74-2.32-33.81-20.39,1.29-61.16l-1.81-19.36s-27.87-7.22-28.9-30.71S564.71,76.52,640.58,81.94Z"/><path class="fc3205f2-11b2-4762-bcbc-ed61d8f40555" d="M606.25,122.31a19.17,19.17,0,0,1-1.09,4.21l-3.92,11.4a4.68,4.68,0,0,1-.85,1.68,4.33,4.33,0,0,1-1.95,1.06,34.77,34.77,0,0,1-6.77,1.46c-1.57.18-3.33.32-4.4,1.49a1.51,1.51,0,0,0-.44,1.46,1.78,1.78,0,0,0,.57.71,21.77,21.77,0,0,0,4.79,2.84l10.38,5"/><path class="fc3205f2-11b2-4762-bcbc-ed61d8f40555" d="M605.16,112.7a22.84,22.84,0,0,1-14,2.88"/><path class="fc3205f2-11b2-4762-bcbc-ed61d8f40555" d="M621.17,113.25a100.63,100.63,0,0,1,10.28,13.24"/><path class="fc3205f2-11b2-4762-bcbc-ed61d8f40555" d="M593.21,162.83l22.25.7"/><path class="f24318bd-2a23-4ee2-b4a0-5b80d6768991" d="M622.16,125.59a25,25,0,0,0-4.82,14.22"/><path class="f24318bd-2a23-4ee2-b4a0-5b80d6768991" d="M593.49,122.15a28.26,28.26,0,0,0-3.77,12.91"/><path class="a10be428-748c-40c8-aea4-0b2025953d37" d="M651.31,289c-12.41-3.68-25.65.17-38,4l1.22-51a11.63,11.63,0,0,0-.31-3.63,12.72,12.72,0,0,0-2.13-3.61,50.91,50.91,0,0,1-4.81-8.14c-1.72-3.66-3-8-1.22-11.67,1.11-2.3,3.32-4,3.89-6.53.71-3.13-1.69-6.41-4.77-7.35s-6.48.11-9.07,2c-1.27.92-2.72,2.11-4.21,1.61a2.94,2.94,0,0,1-1.55-1.42c-1.34-2.39-.36-5.57,1.64-7.44s4.76-2.68,7.46-3.14a39.25,39.25,0,0,1,13.46,0c2.86.5,5.88,1.48,7.54,3.86-5.93-5-14.91-3.18-22.21-5.75a2.9,2.9,0,0,1-1.37-.82c-.9-1.15.16-2.8,1.29-3.73,7.35-6,19-4.43,26.09,1.82a31.68,31.68,0,0,0-19.32-5.79c-2.23.08-5.22-.13-5.67-2.32-.32-1.59,1.11-3,2.48-3.84a23.38,23.38,0,0,1,27.62,2.57,220.77,220.77,0,0,1,12.89-23c1.14-1.77,2.64-3.72,4.75-3.77s3.89,2.15,4.09,4.33-.73,4.28-1.66,6.26c-2.57,5.42-5.45,10.69-7.61,16.28-6.81,17.59-6.1,37.24-2.68,55.79s9.41,36.54,13,55.06"/><path class="f912ad8c-fe19-4971-8bf5-f096dadbec88" d="M651.64,287.77c-12.91-3.73-26.27.17-38.67,4l1.58,1.2.8-33.45.4-16.85c.06-2.48,0-4.72-1.37-6.88s-2.9-4.08-4.16-6.27c-2.24-3.91-5.22-9.47-3.09-14,.9-1.92,2.55-3.37,3.45-5.29a6.85,6.85,0,0,0,.13-5.77c-1.72-4-6.1-5.64-10.2-4.8a16.62,16.62,0,0,0-6,3c-.9.62-2,1.33-2.87.24a3.87,3.87,0,0,1-.54-3.09c1.12-5.49,8.69-6.23,13.17-6.44a37.15,37.15,0,0,1,8.87.61c2.29.46,4.8,1.23,6.25,3.19l2-1.51c-5.77-4.72-13.37-3.8-20.23-5.36a17,17,0,0,1-2.53-.72c-1.2-.47-.68-1.32.06-2.07a12.33,12.33,0,0,1,4.39-2.65,18.64,18.64,0,0,1,9.87-.83,21.87,21.87,0,0,1,10.47,4.91l1.52-2a33.06,33.06,0,0,0-17.82-6c-1.7-.06-3.5.22-5.16-.23a1.86,1.86,0,0,1-1.36-.9c-.4-1,.81-2,1.51-2.49a17.71,17.71,0,0,1,4.88-2.34,22.31,22.31,0,0,1,10.67-.73,21.58,21.58,0,0,1,10.88,5.24,1.26,1.26,0,0,0,2-.26q3.81-7.84,8.21-15.38c1.51-2.58,3.05-5.13,4.68-7.64,1-1.51,2.84-4.16,4.93-2.77,2.33,1.55,1.63,4.72.74,6.87-1.09,2.67-2.49,5.24-3.77,7.83a98.8,98.8,0,0,0-6.5,15.76c-6.46,21.94-2.61,45.23,2.71,66.95,3.19,13,6.92,25.86,9.46,39,.31,1.58,2.72.91,2.41-.67-4.67-24.17-13.54-47.59-15.18-72.31-.78-11.66,0-23.53,3.75-34.68,1.92-5.77,4.72-11.16,7.39-16.61,2-4.14,5.46-10.56.53-14.12-5.4-3.88-9.49,4.77-11.62,8.28q-5.38,8.88-9.9,18.22l2-.25a24.82,24.82,0,0,0-23.3-5.36c-3.22.92-9.47,3.24-8.94,7.51s6.46,3.44,9.48,3.58a30.8,30.8,0,0,1,16.13,5.61c1.15.81,2.59-1,1.51-2-5.92-5.11-14.56-7.47-22.12-5-2.81.94-8.62,3.63-7.64,7.48.5,2,2.82,2.47,4.51,2.89a49.56,49.56,0,0,0,6.17,1c4.62.52,9.75.77,13.51,3.84,1,.82,2.88-.27,2-1.51-2.85-3.86-8-4.62-12.45-5-5-.38-10.77-.12-15.33,2.13-3.69,1.83-6.66,6.35-4.64,10.47a3.93,3.93,0,0,0,5.25,2.07,19.23,19.23,0,0,0,2.87-1.85,11.43,11.43,0,0,1,3.57-1.58,6.65,6.65,0,0,1,6.51,1.61,4.72,4.72,0,0,1,.77,5.87c-1.16,2-2.85,3.62-3.61,5.88a12.55,12.55,0,0,0,0,7c1.28,5.11,4.33,9.61,7.31,13.86a7.14,7.14,0,0,1,1.49,3.52,40.27,40.27,0,0,1,0,4.53l-.21,8.68-1,39.89a1.26,1.26,0,0,0,1.59,1.21c12-3.7,24.87-7.61,37.34-4a1.25,1.25,0,0,0,.66-2.41Z"/><path class="a10be428-748c-40c8-aea4-0b2025953d37" d="M583.14,369.11c-5.19,4-10.3,8.34-14,13.76s-5.94,12.16-4.75,18.63l26.48.26c4.86,0,9.82.11,14.39,1.76,4.84,1.75,8.88,5.15,12.7,8.59s7.61,7.05,12.21,9.35,10.25,3.13,14.85.84c.44,4.49-7,7.18-5.8,11.58a4.11,4.11,0,0,0,2.66,2.69c2.18.77,4.41.19,6.55-.39a9.68,9.68,0,0,0,4.09-1.83c1.49-1.36,2-3.5,2.07-5.52a22,22,0,0,0-7.65-17.78,18,18,0,0,1,6.78,20c-.46,1.38-1.1,2.86-.22,4.22a3.18,3.18,0,0,0,4,1c2.35-1.07,3.14-3.66,3.5-6.06a30.56,30.56,0,0,0-7.33-24.48,25.36,25.36,0,0,1,7.74,24,2.34,2.34,0,0,0,0,1.63,1.93,1.93,0,0,0,1.08.76,4.76,4.76,0,0,0,3.8-.31c3.37-1.84,4.17-5.76,4.31-9.14a28.48,28.48,0,0,0-.87-8.06c-.9-3.64-2.08-7.37-4.35-10.41-3.54-4.75-9.26-7.27-14.74-9.5q-25.77-10.5-52.42-18.64c-4.49-1.37-9.06-2.72-13.14-5a5.31,5.31,0,0,1-2-1.92Z"/><path class="f912ad8c-fe19-4971-8bf5-f096dadbec88" d="M582.26,368.22c-5.42,4.23-10.76,8.75-14.58,14.54-3.69,5.61-5.68,12.37-4.53,19.08a1.27,1.27,0,0,0,1.21.91l19.23.19c5.95.05,12.18-.37,18,.87,11.27,2.37,17.43,13.1,27.12,18.33,5.17,2.8,11.42,3.84,16.87,1.24l-1.88-1.08c.19,2.86-3.08,4.95-4.6,7-2,2.79-1.65,6.61,1.74,8.18,2.23,1,4.69.69,7,.11,2.09-.53,4.41-1.11,5.89-2.79,2.77-3.15,2.37-8.39,1.51-12.18a23.38,23.38,0,0,0-7.48-12.48l-1.51,2A16.74,16.74,0,0,1,653,422.84a15.87,15.87,0,0,1-.14,6.51c-.51,2.16-1.81,4.4-.48,6.54a4.44,4.44,0,0,0,5.15,1.68,6.87,6.87,0,0,0,4.08-4.49c1.51-4.32,1.17-9.56.21-13.95a32,32,0,0,0-7.26-14.31l-1.77,1.76a24.3,24.3,0,0,1,7.93,18.66,20.56,20.56,0,0,1-.33,3.23c-.21,1.16-.66,2.41,0,3.52,1.06,1.91,4.2,1.91,5.94,1.2a8.32,8.32,0,0,0,4.27-4.27c2.06-4.46,1.52-10,.4-14.64s-2.91-9.51-6.48-13c-3.36-3.32-7.71-5.35-12-7.15-10.76-4.5-21.7-8.56-32.72-12.36q-9.37-3.24-18.85-6.17c-2.95-.91-5.92-1.76-8.83-2.8a45,45,0,0,1-4.32-1.77c-1.29-.62-2.77-1.23-3.52-2.52a1.25,1.25,0,0,0-2.16,1.26c1.13,1.95,3.27,2.91,5.24,3.8a64,64,0,0,0,7.34,2.72c5.17,1.63,10.35,3.19,15.5,4.88q15.74,5.16,31.19,11.18c4.75,1.85,9.6,3.61,14.17,5.86,4.19,2.06,8,4.76,10.28,8.95a31.52,31.52,0,0,1,3.61,15.06,14,14,0,0,1-1.13,5.77c-.86,1.75-2.89,3.78-5,3.06-.94-.31-.6-.9-.44-1.7.1-.54.18-1.09.25-1.63a23.81,23.81,0,0,0,.21-3.58,27.09,27.09,0,0,0-1.06-7,26.39,26.39,0,0,0-7.61-12.25,1.25,1.25,0,0,0-1.77,1.76c5.64,6.41,8.53,15.67,6.86,24.13-.35,1.74-1,3.92-2.95,4.5a1.92,1.92,0,0,1-2.16-.58c-.69-1,.09-2.44.4-3.43a18.69,18.69,0,0,0,0-11.08A19.18,19.18,0,0,0,647.54,410c-1.16-.8-2.59,1-1.51,2a21,21,0,0,1,6.13,8.92c1.13,3.25,1.87,7.49.61,10.82-.74,2-2.42,2.66-4.31,3.19s-4.29,1.3-6.28.49c-3.26-1.31-1.47-4.2.13-5.95,1.83-2,4.13-4.15,3.93-7.11a1.27,1.27,0,0,0-1.88-1.08c-5,2.37-10.76.91-15.28-1.76-4.67-2.76-8.44-6.72-12.53-10.22s-8.39-6.46-13.59-7.7c-5.73-1.35-11.78-1-17.62-1.09l-21-.2,1.21.92c-2.33-13.43,8.95-23.76,18.46-31.18C585.29,369,583.51,367.25,582.26,368.22Z"/><path class="acf44cb9-81a6-43c0-9fa7-303cd797f767" d="M682.41,287.54C661.12,313.48,665,345.61,665,345.61l-.38-14.33L654.54,305a128.56,128.56,0,0,0,1.27-18.08c-18.2-7.35-38.71,3.49-46.46,3.87s-1.65,4.92-3.2,19.63c-8.13,84.39,17.42,97.94,30.2,102.19,41.42,10.84,77-53.13,77-53.13l.22-.45"/><path class="acf44cb9-81a6-43c0-9fa7-303cd797f767" d="M515.29,333.73l70.45,36s-19.35,7-22.06,33.29c-17.81-1.54-35.48-4.16-35.48-4.16h-.11"/></g></g></svg>