<svg width="666" height="808" viewBox="0 0 666 808" fill="none" xmlns="http://www.w3.org/2000/svg">
<g clip-path="url(#clip0_249_2894)">
<path d="M519.947 157.405L519.948 157.406C521.671 159.246 523.394 161.084 525.114 162.919C559.756 199.881 593.559 235.949 619.269 271.731C646.257 309.293 664.276 346.475 665.013 383.974C665.749 421.723 649.202 459.764 623.383 498.554C597.566 537.34 562.522 576.811 526.34 617.424L526.339 617.425C490.158 658.279 452.898 700.088 412.755 733.961C372.614 767.833 329.624 793.739 281.999 802.822L281.997 802.823C234.367 812.153 182.175 804.544 136.173 784.461C90.1693 764.377 50.3952 731.835 27.5695 691.342L27.569 691.341C4.5015 650.606 -1.52669 601.864 1.05468 551.832C3.63595 501.801 14.8231 450.528 26.1424 404.758L26.143 404.756C48.2863 313.231 70.4209 244.377 116.159 166.667C139.281 127.805 168.049 86.8695 199.999 55.3493C231.961 23.8177 267.038 1.776 302.78 0.553957L302.763 0.0542486L302.78 0.553952C338.274 -0.669982 374.451 19.0387 410.852 48.8605C445.206 77.0058 479.676 114.086 513.871 150.871C515.898 153.051 517.923 155.229 519.947 157.405Z" fill="#FFD803" stroke="black"/>
</g>
<defs>
<clipPath id="clip0_249_2894">
<rect width="665.533" height="807.277" fill="white"/>
</clipPath>
</defs>
</svg>
