<svg width="96" height="96" viewBox="0 0 96 96" fill="none" xmlns="http://www.w3.org/2000/svg">
<path d="M48 0C35.2696 0 23.0603 5.05719 14.0591 14.0591C5.05719 23.061 0 35.27 0 48C0 60.7299 5.05719 72.9397 14.0591 81.9409C23.061 90.9428 35.2701 96 48 96C60.7299 96 72.9397 90.9428 81.9409 81.9409C90.9428 72.939 96 60.7299 96 48C96 35.27 90.9428 23.0603 81.9409 14.0591C72.939 5.05719 60.7299 0 48 0ZM68.5501 38.5421L44.5819 62.5423C43.906 63.2271 42.9846 63.612 42.0221 63.612C41.0596 63.612 40.1382 63.2271 39.4623 62.5423L27.4622 50.5609C26.7827 49.8877 26.3997 48.9725 26.3952 48.0171C26.3908 47.0609 26.7667 46.1421 27.4399 45.4635C28.1131 44.784 29.0283 44.401 29.9837 44.3965C30.9399 44.3921 31.8587 44.768 32.5373 45.4412L42.0284 54.9128L63.4491 33.46H63.45C64.1241 32.785 65.0393 32.4065 65.9938 32.4065C66.9483 32.4065 67.8635 32.785 68.5376 33.46C69.2126 34.1333 69.593 35.0458 69.5948 35.9984C69.5974 36.951 69.2216 37.8662 68.5501 38.5421L68.5501 38.5421Z" fill="#005E1A"/>
</svg>
