<svg width="113" height="153" viewBox="0 0 113 153" fill="none" xmlns="http://www.w3.org/2000/svg">
<path d="M58.2404 143.62C74.8807 143.62 88.3704 128.63 88.3704 110.14C88.3704 91.6494 74.8807 76.6599 58.2404 76.6599C41.6 76.6599 28.1104 91.6494 28.1104 110.14C28.1104 128.63 41.6 143.62 58.2404 143.62Z" fill="#D55415"/>
<path fill-rule="evenodd" clip-rule="evenodd" d="M75.1804 30.9099C80.7504 47.0099 73.3304 61.7099 66.1104 66.7699C66.5404 46.1699 59.3204 15.5899 36.4004 2.68994C40.0804 47.0799 2.40039 62.3699 2.40039 101.46C2.40039 128.02 20.9304 150.69 56.7304 150.89C126.48 149.2 124.77 59.3699 75.1804 30.9099ZM55.3804 138.54C44.3004 138.54 38.6004 130.73 38.6604 122.63C38.7804 107.63 55.1904 107.63 64.8404 82.9699C87.5104 107.6 73.6104 138.54 55.3804 138.54Z" fill="#D55415" stroke="black" stroke-width="3" stroke-miterlimit="10"/>
<path fill-rule="evenodd" clip-rule="evenodd" d="M54.2205 141.58C41.6805 141.58 35.2205 132.74 35.3005 123.58C35.4305 106.58 54.0105 106.58 64.9305 78.6799C90.6105 106.56 74.8405 141.58 54.2205 141.58Z" fill="#D55415"/>
<path d="M32.3209 86.2699C31.923 86.2699 31.5415 86.1119 31.2602 85.8306C30.9789 85.5493 30.8209 85.1677 30.8209 84.7699C30.8529 84.0073 30.7304 83.246 30.4607 82.532C30.191 81.8179 29.7796 81.1658 29.2513 80.6148C28.723 80.0639 28.0888 79.6255 27.3867 79.326C26.6846 79.0265 25.9292 78.8721 25.1659 78.8721C24.4026 78.8721 23.6471 79.0265 22.945 79.326C22.2429 79.6255 21.6087 80.0639 21.0804 80.6148C20.5521 81.1658 20.1408 81.8179 19.871 82.532C19.6013 83.246 19.4788 84.0073 19.5109 84.7699C19.5109 85.1677 19.3528 85.5493 19.0715 85.8306C18.7902 86.1119 18.4087 86.2699 18.0109 86.2699C17.613 86.2699 17.2315 86.1119 16.9502 85.8306C16.6689 85.5493 16.5109 85.1677 16.5109 84.7699C16.4714 83.6086 16.666 82.4512 17.0832 81.3666C17.5004 80.2821 18.1316 79.2926 18.9392 78.4571C19.7468 77.6215 20.7142 76.9571 21.784 76.5033C22.8537 76.0495 24.0038 75.8157 25.1659 75.8157C26.3279 75.8157 27.478 76.0495 28.5478 76.5033C29.6175 76.9571 30.585 77.6215 31.3926 78.4571C32.2002 79.2926 32.8313 80.2821 33.2485 81.3666C33.6657 82.4512 33.8603 83.6086 33.8209 84.7699C33.8209 85.1677 33.6628 85.5493 33.3815 85.8306C33.1002 86.1119 32.7187 86.2699 32.3209 86.2699Z" fill="black"/>
<path d="M60.9301 86.5C60.5323 86.5 60.1508 86.342 59.8694 86.0607C59.5881 85.7794 59.4301 85.3979 59.4301 85C59.3688 83.5414 58.7461 82.1629 57.6923 81.1524C56.6385 80.142 55.2351 79.5779 53.7751 79.5779C52.3152 79.5779 50.9117 80.142 49.8579 81.1524C48.8041 82.1629 48.1815 83.5414 48.1201 85C48.1201 85.3979 47.9621 85.7794 47.6808 86.0607C47.3995 86.342 47.0179 86.5 46.6201 86.5C46.2223 86.5 45.8408 86.342 45.5594 86.0607C45.2781 85.7794 45.1201 85.3979 45.1201 85C45.1964 82.7555 46.1417 80.6284 47.7565 79.0676C49.3713 77.5067 51.5293 76.6343 53.7751 76.6343C56.0209 76.6343 58.1789 77.5067 59.7937 79.0676C61.4085 80.6284 62.3538 82.7555 62.4301 85C62.4301 85.3979 62.2721 85.7794 61.9908 86.0607C61.7094 86.342 61.3279 86.5 60.9301 86.5Z" fill="black"/>
<path d="M39.4703 101.67C37.1753 101.667 34.9751 100.754 33.3532 99.13C31.7313 97.5062 30.8203 95.3051 30.8203 93.01C30.8203 92.6122 30.9784 92.2307 31.2597 91.9493C31.541 91.668 31.9225 91.51 32.3203 91.51C32.7181 91.51 33.0997 91.668 33.381 91.9493C33.6623 92.2307 33.8203 92.6122 33.8203 93.01C33.8203 94.5085 34.4156 95.9456 35.4752 97.0052C36.5347 98.0647 37.9718 98.66 39.4703 98.66C40.9688 98.66 42.4059 98.0647 43.4655 97.0052C44.5251 95.9456 45.1203 94.5085 45.1203 93.01C45.1203 92.6122 45.2784 92.2307 45.5597 91.9493C45.841 91.668 46.2225 91.51 46.6203 91.51C47.0182 91.51 47.3997 91.668 47.681 91.9493C47.9623 92.2307 48.1203 92.6122 48.1203 93.01C48.1203 95.3051 47.2093 97.5062 45.5874 99.13C43.9655 100.754 41.7653 101.667 39.4703 101.67Z" fill="black"/>
<path fill-rule="evenodd" clip-rule="evenodd" d="M55.0799 141.58C42.5399 141.58 36.0799 132.74 36.1599 123.58C36.2999 106.58 54.8699 106.58 65.7899 78.6799C91.4499 106.56 75.6999 141.58 55.0799 141.58Z" fill="#FFD800"/>
</svg>
