<svg xmlns="http://www.w3.org/2000/svg" xmlns:xlink="http://www.w3.org/1999/xlink" width="768" height="547" viewBox="0 0 768 547"><defs><clipPath id="a"><rect width="768" height="547" fill="none"/></clipPath></defs><g clip-path="url(#a)"><g transform="translate(-218 -98)"><circle cx="2.5" cy="2.5" r="2.5" transform="translate(218 98)"/></g><g transform="translate(-171 -98)"><circle cx="2.5" cy="2.5" r="2.5" transform="translate(218 98)"/></g><g transform="translate(-124 -98)"><circle cx="2.5" cy="2.5" r="2.5" transform="translate(218 98)"/></g><g transform="translate(-77 -98)"><circle cx="2.5" cy="2.5" r="2.5" transform="translate(218 98)"/></g><g transform="translate(-30 -98)"><circle cx="2.5" cy="2.5" r="2.5" transform="translate(218 98)"/></g><g transform="translate(17 -98)"><circle cx="2.5" cy="2.5" r="2.5" transform="translate(218 98)"/></g><g transform="translate(64 -98)"><circle cx="2.5" cy="2.5" r="2.5" transform="translate(218 98)"/></g><g transform="translate(111 -98)"><circle cx="2.5" cy="2.5" r="2.5" transform="translate(218 98)"/></g><g transform="translate(158 -98)"><circle cx="2.5" cy="2.5" r="2.5" transform="translate(218 98)"/></g><g transform="translate(205 -98)"><circle cx="2.5" cy="2.5" r="2.5" transform="translate(218 98)"/></g><g transform="translate(252 -98)"><circle cx="2.5" cy="2.5" r="2.5" transform="translate(218 98)"/></g><g transform="translate(299 -98)"><circle cx="2.5" cy="2.5" r="2.5" transform="translate(218 98)"/></g><g transform="translate(346 -98)"><circle cx="2.5" cy="2.5" r="2.5" transform="translate(218 98)"/></g><g transform="translate(393 -98)"><circle cx="2.5" cy="2.5" r="2.5" transform="translate(218 98)"/></g><g transform="translate(440 -98)"><circle cx="2.5" cy="2.5" r="2.5" transform="translate(218 98)"/></g><g transform="translate(487 -98)"><circle cx="2.5" cy="2.5" r="2.5" transform="translate(218 98)"/></g><g transform="translate(534 -98)"><circle cx="2.5" cy="2.5" r="2.5" transform="translate(218 98)"/></g><g transform="translate(-218 -40)"><circle cx="2.5" cy="2.5" r="2.5" transform="translate(218 98)"/></g><g transform="translate(-171 -40)"><circle cx="2.5" cy="2.5" r="2.5" transform="translate(218 98)"/></g><g transform="translate(-124 -40)"><circle cx="2.5" cy="2.5" r="2.5" transform="translate(218 98)"/></g><g transform="translate(-77 -40)"><circle cx="2.5" cy="2.5" r="2.5" transform="translate(218 98)"/></g><g transform="translate(-30 -40)"><circle cx="2.5" cy="2.5" r="2.5" transform="translate(218 98)"/></g><g transform="translate(17 -40)"><circle cx="2.5" cy="2.5" r="2.5" transform="translate(218 98)"/></g><g transform="translate(64 -40)"><circle cx="2.5" cy="2.5" r="2.5" transform="translate(218 98)"/></g><g transform="translate(111 -40)"><circle cx="2.5" cy="2.5" r="2.5" transform="translate(218 98)"/></g><g transform="translate(158 -40)"><circle cx="2.5" cy="2.5" r="2.5" transform="translate(218 98)"/></g><g transform="translate(205 -40)"><circle cx="2.5" cy="2.5" r="2.5" transform="translate(218 98)"/></g><g transform="translate(252 -40)"><circle cx="2.5" cy="2.5" r="2.5" transform="translate(218 98)"/></g><g transform="translate(299 -40)"><circle cx="2.5" cy="2.5" r="2.5" transform="translate(218 98)"/></g><g transform="translate(346 -40)"><circle cx="2.5" cy="2.5" r="2.5" transform="translate(218 98)"/></g><g transform="translate(393 -40)"><circle cx="2.5" cy="2.5" r="2.5" transform="translate(218 98)"/></g><g transform="translate(440 -40)"><circle cx="2.5" cy="2.5" r="2.5" transform="translate(218 98)"/></g><g transform="translate(487 -40)"><circle cx="2.5" cy="2.5" r="2.5" transform="translate(218 98)"/></g><g transform="translate(534 -40)"><circle cx="2.5" cy="2.5" r="2.5" transform="translate(218 98)"/></g><g transform="translate(-218 18)"><circle cx="2.5" cy="2.5" r="2.5" transform="translate(218 98)"/></g><g transform="translate(-171 18)"><circle cx="2.5" cy="2.5" r="2.5" transform="translate(218 98)"/></g><g transform="translate(-124 18)"><circle cx="2.5" cy="2.5" r="2.5" transform="translate(218 98)"/></g><g transform="translate(-77 18)"><circle cx="2.5" cy="2.5" r="2.5" transform="translate(218 98)"/></g><g transform="translate(-30 18)"><circle cx="2.5" cy="2.5" r="2.5" transform="translate(218 98)"/></g><g transform="translate(17 18)"><circle cx="2.5" cy="2.5" r="2.5" transform="translate(218 98)"/></g><g transform="translate(64 18)"><circle cx="2.5" cy="2.5" r="2.5" transform="translate(218 98)"/></g><g transform="translate(111 18)"><circle cx="2.5" cy="2.5" r="2.5" transform="translate(218 98)"/></g><g transform="translate(158 18)"><circle cx="2.5" cy="2.5" r="2.5" transform="translate(218 98)"/></g><g transform="translate(205 18)"><circle cx="2.5" cy="2.5" r="2.5" transform="translate(218 98)"/></g><g transform="translate(252 18)"><circle cx="2.5" cy="2.5" r="2.5" transform="translate(218 98)"/></g><g transform="translate(299 18)"><circle cx="2.5" cy="2.5" r="2.5" transform="translate(218 98)"/></g><g transform="translate(346 18)"><circle cx="2.5" cy="2.5" r="2.5" transform="translate(218 98)"/></g><g transform="translate(393 18)"><circle cx="2.5" cy="2.5" r="2.5" transform="translate(218 98)"/></g><g transform="translate(440 18)"><circle cx="2.5" cy="2.5" r="2.5" transform="translate(218 98)"/></g><g transform="translate(487 18)"><circle cx="2.5" cy="2.5" r="2.5" transform="translate(218 98)"/></g><g transform="translate(534 18)"><circle cx="2.5" cy="2.5" r="2.5" transform="translate(218 98)"/></g><g transform="translate(-218 76)"><circle cx="2.5" cy="2.5" r="2.5" transform="translate(218 98)"/></g><g transform="translate(-171 76)"><circle cx="2.5" cy="2.5" r="2.5" transform="translate(218 98)"/></g><g transform="translate(-124 76)"><circle cx="2.5" cy="2.5" r="2.5" transform="translate(218 98)"/></g><g transform="translate(-77 76)"><circle cx="2.5" cy="2.5" r="2.5" transform="translate(218 98)"/></g><g transform="translate(-30 76)"><circle cx="2.5" cy="2.5" r="2.5" transform="translate(218 98)"/></g><g transform="translate(17 76)"><circle cx="2.5" cy="2.5" r="2.5" transform="translate(218 98)"/></g><g transform="translate(64 76)"><circle cx="2.5" cy="2.5" r="2.5" transform="translate(218 98)"/></g><g transform="translate(111 76)"><circle cx="2.5" cy="2.5" r="2.5" transform="translate(218 98)"/></g><g transform="translate(158 76)"><circle cx="2.5" cy="2.5" r="2.5" transform="translate(218 98)"/></g><g transform="translate(205 76)"><circle cx="2.5" cy="2.5" r="2.5" transform="translate(218 98)"/></g><g transform="translate(252 76)"><circle cx="2.5" cy="2.5" r="2.5" transform="translate(218 98)"/></g><g transform="translate(299 76)"><circle cx="2.5" cy="2.5" r="2.5" transform="translate(218 98)"/></g><g transform="translate(346 76)"><circle cx="2.5" cy="2.5" r="2.5" transform="translate(218 98)"/></g><g transform="translate(393 76)"><circle cx="2.5" cy="2.5" r="2.5" transform="translate(218 98)"/></g><g transform="translate(440 76)"><circle cx="2.5" cy="2.5" r="2.5" transform="translate(218 98)"/></g><g transform="translate(487 76)"><circle cx="2.5" cy="2.5" r="2.5" transform="translate(218 98)"/></g><g transform="translate(534 76)"><circle cx="2.5" cy="2.5" r="2.5" transform="translate(218 98)"/></g><g transform="translate(-218 134)"><circle cx="2.5" cy="2.5" r="2.5" transform="translate(218 98)"/></g><g transform="translate(-171 134)"><circle cx="2.5" cy="2.5" r="2.5" transform="translate(218 98)"/></g><g transform="translate(-124 134)"><circle cx="2.5" cy="2.5" r="2.5" transform="translate(218 98)"/></g><g transform="translate(-77 134)"><circle cx="2.5" cy="2.5" r="2.5" transform="translate(218 98)"/></g><g transform="translate(-30 134)"><circle cx="2.5" cy="2.5" r="2.5" transform="translate(218 98)"/></g><g transform="translate(17 134)"><circle cx="2.5" cy="2.5" r="2.5" transform="translate(218 98)"/></g><g transform="translate(64 134)"><circle cx="2.5" cy="2.5" r="2.5" transform="translate(218 98)"/></g><g transform="translate(111 134)"><circle cx="2.5" cy="2.5" r="2.5" transform="translate(218 98)"/></g><g transform="translate(158 134)"><circle cx="2.5" cy="2.5" r="2.5" transform="translate(218 98)"/></g><g transform="translate(205 134)"><circle cx="2.5" cy="2.5" r="2.5" transform="translate(218 98)"/></g><g transform="translate(252 134)"><circle cx="2.5" cy="2.5" r="2.5" transform="translate(218 98)"/></g><g transform="translate(299 134)"><circle cx="2.5" cy="2.5" r="2.5" transform="translate(218 98)"/></g><g transform="translate(346 134)"><circle cx="2.5" cy="2.5" r="2.5" transform="translate(218 98)"/></g><g transform="translate(393 134)"><circle cx="2.5" cy="2.5" r="2.5" transform="translate(218 98)"/></g><g transform="translate(440 134)"><circle cx="2.5" cy="2.5" r="2.5" transform="translate(218 98)"/></g><g transform="translate(487 134)"><circle cx="2.5" cy="2.5" r="2.5" transform="translate(218 98)"/></g><g transform="translate(534 134)"><circle cx="2.5" cy="2.5" r="2.5" transform="translate(218 98)"/></g><g transform="translate(-218 192)"><circle cx="2.5" cy="2.5" r="2.5" transform="translate(218 98)"/></g><g transform="translate(-171 192)"><circle cx="2.5" cy="2.5" r="2.5" transform="translate(218 98)"/></g><g transform="translate(-124 192)"><circle cx="2.5" cy="2.5" r="2.5" transform="translate(218 98)"/></g><g transform="translate(-77 192)"><circle cx="2.5" cy="2.5" r="2.5" transform="translate(218 98)"/></g><g transform="translate(-30 192)"><circle cx="2.5" cy="2.5" r="2.5" transform="translate(218 98)"/></g><g transform="translate(17 192)"><circle cx="2.5" cy="2.5" r="2.5" transform="translate(218 98)"/></g><g transform="translate(64 192)"><circle cx="2.5" cy="2.5" r="2.5" transform="translate(218 98)"/></g><g transform="translate(111 192)"><circle cx="2.5" cy="2.5" r="2.5" transform="translate(218 98)"/></g><g transform="translate(158 192)"><circle cx="2.5" cy="2.5" r="2.5" transform="translate(218 98)"/></g><g transform="translate(205 192)"><circle cx="2.5" cy="2.5" r="2.5" transform="translate(218 98)"/></g><g transform="translate(252 192)"><circle cx="2.5" cy="2.5" r="2.5" transform="translate(218 98)"/></g><g transform="translate(299 192)"><circle cx="2.5" cy="2.5" r="2.5" transform="translate(218 98)"/></g><g transform="translate(346 192)"><circle cx="2.5" cy="2.5" r="2.5" transform="translate(218 98)"/></g><g transform="translate(393 192)"><circle cx="2.5" cy="2.5" r="2.5" transform="translate(218 98)"/></g><g transform="translate(440 192)"><circle cx="2.5" cy="2.5" r="2.5" transform="translate(218 98)"/></g><g transform="translate(487 192)"><circle cx="2.5" cy="2.5" r="2.5" transform="translate(218 98)"/></g><g transform="translate(534 192)"><circle cx="2.5" cy="2.5" r="2.5" transform="translate(218 98)"/></g><g transform="translate(-218 250)"><circle cx="2.5" cy="2.5" r="2.5" transform="translate(218 98)"/></g><g transform="translate(-171 250)"><circle cx="2.5" cy="2.5" r="2.5" transform="translate(218 98)"/></g><g transform="translate(-124 250)"><circle cx="2.5" cy="2.5" r="2.5" transform="translate(218 98)"/></g><g transform="translate(-77 250)"><circle cx="2.5" cy="2.5" r="2.5" transform="translate(218 98)"/></g><g transform="translate(-30 250)"><circle cx="2.5" cy="2.5" r="2.5" transform="translate(218 98)"/></g><g transform="translate(17 250)"><circle cx="2.5" cy="2.5" r="2.5" transform="translate(218 98)"/></g><g transform="translate(64 250)"><circle cx="2.5" cy="2.5" r="2.5" transform="translate(218 98)"/></g><g transform="translate(111 250)"><circle cx="2.5" cy="2.5" r="2.5" transform="translate(218 98)"/></g><g transform="translate(158 250)"><circle cx="2.5" cy="2.5" r="2.5" transform="translate(218 98)"/></g><g transform="translate(205 250)"><circle cx="2.5" cy="2.5" r="2.5" transform="translate(218 98)"/></g><g transform="translate(252 250)"><circle cx="2.5" cy="2.5" r="2.5" transform="translate(218 98)"/></g><g transform="translate(299 250)"><circle cx="2.5" cy="2.5" r="2.5" transform="translate(218 98)"/></g><g transform="translate(346 250)"><circle cx="2.5" cy="2.5" r="2.5" transform="translate(218 98)"/></g><g transform="translate(393 250)"><circle cx="2.5" cy="2.5" r="2.5" transform="translate(218 98)"/></g><g transform="translate(440 250)"><circle cx="2.5" cy="2.5" r="2.5" transform="translate(218 98)"/></g><g transform="translate(487 250)"><circle cx="2.5" cy="2.5" r="2.5" transform="translate(218 98)"/></g><g transform="translate(534 250)"><circle cx="2.5" cy="2.5" r="2.5" transform="translate(218 98)"/></g><g transform="translate(-218 308)"><circle cx="2.5" cy="2.5" r="2.5" transform="translate(218 98)"/></g><g transform="translate(-171 308)"><circle cx="2.5" cy="2.5" r="2.5" transform="translate(218 98)"/></g><g transform="translate(-124 308)"><circle cx="2.5" cy="2.5" r="2.5" transform="translate(218 98)"/></g><g transform="translate(-77 308)"><circle cx="2.5" cy="2.5" r="2.5" transform="translate(218 98)"/></g><g transform="translate(-30 308)"><circle cx="2.5" cy="2.5" r="2.5" transform="translate(218 98)"/></g><g transform="translate(17 308)"><circle cx="2.5" cy="2.5" r="2.5" transform="translate(218 98)"/></g><g transform="translate(64 308)"><circle cx="2.5" cy="2.5" r="2.5" transform="translate(218 98)"/></g><g transform="translate(111 308)"><circle cx="2.5" cy="2.5" r="2.5" transform="translate(218 98)"/></g><g transform="translate(158 308)"><circle cx="2.5" cy="2.5" r="2.5" transform="translate(218 98)"/></g><g transform="translate(205 308)"><circle cx="2.5" cy="2.5" r="2.5" transform="translate(218 98)"/></g><g transform="translate(252 308)"><circle cx="2.5" cy="2.5" r="2.5" transform="translate(218 98)"/></g><g transform="translate(299 308)"><circle cx="2.5" cy="2.5" r="2.5" transform="translate(218 98)"/></g><g transform="translate(346 308)"><circle cx="2.5" cy="2.5" r="2.5" transform="translate(218 98)"/></g><g transform="translate(393 308)"><circle cx="2.5" cy="2.5" r="2.5" transform="translate(218 98)"/></g><g transform="translate(440 308)"><circle cx="2.5" cy="2.5" r="2.5" transform="translate(218 98)"/></g><g transform="translate(487 308)"><circle cx="2.5" cy="2.5" r="2.5" transform="translate(218 98)"/></g><g transform="translate(534 308)"><circle cx="2.5" cy="2.5" r="2.5" transform="translate(218 98)"/></g><g transform="translate(-218 366)"><circle cx="2.5" cy="2.5" r="2.5" transform="translate(218 98)"/></g><g transform="translate(-171 366)"><circle cx="2.5" cy="2.5" r="2.5" transform="translate(218 98)"/></g><g transform="translate(-124 366)"><circle cx="2.5" cy="2.5" r="2.5" transform="translate(218 98)"/></g><g transform="translate(-77 366)"><circle cx="2.5" cy="2.5" r="2.5" transform="translate(218 98)"/></g><g transform="translate(-30 366)"><circle cx="2.5" cy="2.5" r="2.5" transform="translate(218 98)"/></g><g transform="translate(17 366)"><circle cx="2.5" cy="2.5" r="2.5" transform="translate(218 98)"/></g><g transform="translate(64 366)"><circle cx="2.5" cy="2.5" r="2.5" transform="translate(218 98)"/></g><g transform="translate(111 366)"><circle cx="2.5" cy="2.5" r="2.5" transform="translate(218 98)"/></g><g transform="translate(158 366)"><circle cx="2.5" cy="2.5" r="2.5" transform="translate(218 98)"/></g><g transform="translate(205 366)"><circle cx="2.5" cy="2.5" r="2.5" transform="translate(218 98)"/></g><g transform="translate(252 366)"><circle cx="2.5" cy="2.5" r="2.5" transform="translate(218 98)"/></g><g transform="translate(299 366)"><circle cx="2.5" cy="2.5" r="2.5" transform="translate(218 98)"/></g><g transform="translate(346 366)"><circle cx="2.5" cy="2.5" r="2.5" transform="translate(218 98)"/></g><g transform="translate(393 366)"><circle cx="2.5" cy="2.5" r="2.5" transform="translate(218 98)"/></g><g transform="translate(440 366)"><circle cx="2.5" cy="2.5" r="2.5" transform="translate(218 98)"/></g><g transform="translate(487 366)"><circle cx="2.5" cy="2.5" r="2.5" transform="translate(218 98)"/></g><g transform="translate(534 366)"><circle cx="2.5" cy="2.5" r="2.5" transform="translate(218 98)"/></g><g transform="translate(-218 424)"><circle cx="2.5" cy="2.5" r="2.5" transform="translate(218 98)"/></g><g transform="translate(-171 424)"><circle cx="2.5" cy="2.5" r="2.5" transform="translate(218 98)"/></g><g transform="translate(-124 424)"><circle cx="2.5" cy="2.5" r="2.5" transform="translate(218 98)"/></g><g transform="translate(-77 424)"><circle cx="2.5" cy="2.5" r="2.5" transform="translate(218 98)"/></g><g transform="translate(-30 424)"><circle cx="2.5" cy="2.5" r="2.5" transform="translate(218 98)"/></g><g transform="translate(17 424)"><circle cx="2.5" cy="2.5" r="2.5" transform="translate(218 98)"/></g><g transform="translate(64 424)"><circle cx="2.5" cy="2.5" r="2.5" transform="translate(218 98)"/></g><g transform="translate(111 424)"><circle cx="2.5" cy="2.5" r="2.5" transform="translate(218 98)"/></g><g transform="translate(158 424)"><circle cx="2.5" cy="2.5" r="2.5" transform="translate(218 98)"/></g><g transform="translate(205 424)"><circle cx="2.5" cy="2.5" r="2.5" transform="translate(218 98)"/></g><g transform="translate(252 424)"><circle cx="2.5" cy="2.5" r="2.5" transform="translate(218 98)"/></g><g transform="translate(299 424)"><circle cx="2.5" cy="2.5" r="2.5" transform="translate(218 98)"/></g><g transform="translate(346 424)"><circle cx="2.5" cy="2.5" r="2.5" transform="translate(218 98)"/></g><g transform="translate(393 424)"><circle cx="2.5" cy="2.5" r="2.5" transform="translate(218 98)"/></g><g transform="translate(440 424)"><circle cx="2.5" cy="2.5" r="2.5" transform="translate(218 98)"/></g><g transform="translate(487 424)"><circle cx="2.5" cy="2.5" r="2.5" transform="translate(218 98)"/></g><g transform="translate(534 424)"><circle cx="2.5" cy="2.5" r="2.5" transform="translate(218 98)"/></g></g></svg>