<svg xmlns="http://www.w3.org/2000/svg" viewBox="0 0 651.04 533.88"><defs><style>.a{fill:#272343;}.b{fill:#ffc2be;}.c{fill:#020202;}.d,.j{fill:none;}.d{stroke:#020202;stroke-linecap:round;stroke-linejoin:round;stroke-width:3px;}.e{fill:#b2acfc;}.f{fill:#bae8e8;}.g{fill:#fcce95;}.h{fill:#c5b8f4;}.i{fill:#ffd803;}.k{fill:#f94743;}.l{fill:#fff;stroke:#000;stroke-miterlimit:10;}.m{fill-rule:evenodd;}</style></defs><path class="a" d="M593.42,61.15c23,34.86,28.73,75.21,24.09,110.91-4.44,35.91-19.23,67-42.25,97.18s-54.09,59.57-86.62,60.84-66.12-25.56-101-55.77c-34.64-30.21-70.13-63.8-69.29-96.76.85-32.74,38.24-64.85,72.88-99.71C425.9,42.77,458,4.75,494.13.52S570.61,26.09,593.42,61.15Z" transform="translate(-0.48 -0.12)"/><path d="M436.88,115c0,27.61,27.13,34.53,50,50,3.08,2.08,15.36,1.83,19.12,3,23.25,7,47.93-1.5,57-19,14-27-22.07-43.9-21-53,2-17-27.51-31-55.12-31A50,50,0,0,0,436.88,115Z" transform="translate(-0.48 -0.12)"/><path class="b" d="M506,131s-12-2-13-22c-6-1-17-4-19-18-5,0-12,1-21-5-3,0-22.8,24.36-16.2,50a48.86,48.86,0,0,0,43.6,36.21c7,.54,18.6-.22,25.6-4.22v-9s12.51,7.17,22.2-1a17.44,17.44,0,0,0,4.74-19.67C530.34,131.83,523.88,125.93,506,131Z" transform="translate(-0.48 -0.12)"/><circle class="c" cx="476.39" cy="112.91" r="3"/><circle class="c" cx="457.39" cy="102.91" r="3"/><path class="d" d="M473.88,126s-5,11-19,7" transform="translate(-0.48 -0.12)"/><polyline class="d" points="461.04 110.91 451.89 120.41 459.39 123.08"/><path class="e" d="M388,275l12.61-62.1A41,41,0,0,1,440.84,181l96.59.62a50.23,50.23,0,0,1,40.39,20.84L598,234c-24.86,48.46-53.79,97-112,97-25,0-52-19-52-19C414,300,405,293,388,275Z" transform="translate(-0.48 -0.12)"/><path class="f" d="M249.59,77.39c23.9,28.61,40.86,57,51.7,90.53,10.83,33.72,15.53,72.54,2.65,107.28-12.67,34.95-43.12,65.8-80.72,81.54-37.39,15.94-82.35,16.75-117.5,0s-60.48-51.09-79.49-87.46S-5.24,194.48,3.14,162s37.4-59.26,67.64-86.64S132.49,19.77,163.55,20,225.68,49,249.59,77.39Z" transform="translate(-0.48 -0.12)"/><path class="c" d="M255.79,338.92l-18.08-82.53c-4.17-19-20.53-32.52-39.33-32.39l-94.44.63a48.6,48.6,0,0,0-39.5,21.16L36,286.74C60.31,335.94,110.1,370,167,370c22.7,0,44.11-7,44.11-7A144.22,144.22,0,0,0,255.79,338.92Z" transform="translate(-0.48 -0.12)"/><circle cx="160.52" cy="165.88" r="50"/><path class="g" d="M142,175s12-2,13-22c6-1,17-4,19-18,5,0,12,1,21-5,3,0,22.8,24.37,16.2,50a48.84,48.84,0,0,1-43.6,36.21c-7,.54-18.6-.22-25.6-4.22v-9s-12.51,7.17-22.2-1.05a17.43,17.43,0,0,1-4.74-19.66C117.66,175.79,124.12,169.89,142,175Z" transform="translate(-0.48 -0.12)"/><circle class="c" cx="170.52" cy="163.88" r="3"/><circle class="c" cx="189.52" cy="153.88" r="3"/><path class="d" d="M170.5,186.5c1.38-1.76,11-4,16.5-1.5" transform="translate(-0.48 -0.12)"/><polyline class="d" points="185.87 161.88 195.02 171.38 187.52 174.04"/><rect class="h" x="117.47" y="114.86" width="21" height="16.78" transform="translate(-46.42 86.75) rotate(-32.11)"/><path d="M131.16,111.35a3.15,3.15,0,0,0,1.45-2.31c.79-6.66,2.73-32.79-15.61-31-21,2-42,30-44,47a49.45,49.45,0,0,0,1,17.18,3.15,3.15,0,0,0,6.18-.12C82.34,130.06,87,113.78,96,117c10.19,3.64,15.41,4.49,17.5,4.68a3.19,3.19,0,0,0,2-.47Z" transform="translate(-0.48 -0.12)"/><circle class="i" cx="359.52" cy="383.88" r="150"/><line class="j" x1="226.54" y1="453.34" x2="449.53" y2="503.88"/><path class="k" d="M450.79,503.18,432.3,421.9A41,41,0,0,0,392.07,390l-96.58.62a50.24,50.24,0,0,0-40.4,20.84L226,451.79c24.86,48.46,75.79,82,134,82,23.22,0,45.11-6.9,45.11-6.9A149.51,149.51,0,0,0,450.79,503.18Z" transform="translate(-0.48 -0.12)"/><circle cx="360.05" cy="328.88" r="50"/><path class="b" d="M379.54,338s-12-2-13-22c-6-1-17-4-19-18-5,0-12,1-21-5-3,0-22.8,24.37-16.2,50a48.84,48.84,0,0,0,43.6,36.21c7,.54,18.6-.22,25.6-4.22v-9s12.51,7.17,22.19-1.05a17.42,17.42,0,0,0,4.75-19.66C403.88,338.79,397.42,332.89,379.54,338Z" transform="translate(-0.48 -0.12)"/><circle class="c" cx="350.05" cy="326.88" r="3"/><circle class="c" cx="331.05" cy="316.88" r="3"/><path class="d" d="M347.54,340s-5,11-19,7" transform="translate(-0.48 -0.12)"/><polyline class="d" points="334.7 324.88 325.55 334.38 333.05 337.04"/><path class="l" d="M352,76c0,24.16-24.34,44.32-56.69,49A99.8,99.8,0,0,1,281,126c-4.39,0-32.5,16.5-42.5,25.5-7.16,6.44,19-27,3.42-33.75C222.46,109.32,210,93.45,210,76c0-27.61,31.79-50,71-50S352,48.39,352,76Z" transform="translate(-0.48 -0.12)"/><path class="l" d="M651,49.33c0,18-18.17,33.1-42.33,36.58a74.62,74.62,0,0,1-10.69.76c-3.27,0-24.26,12.32-31.73,19-5.34,4.81,14.19-20.16,2.55-25.2C554.3,74.21,545,62.36,545,49.33,545,28.71,568.74,12,598,12S651,28.71,651,49.33Z" transform="translate(-0.48 -0.12)"/><path class="l" d="M255,215.11c0,16.85,17,30.9,39.52,34.15a69.16,69.16,0,0,0,10,.71c3.06,0,22.66,11.5,29.63,17.78,5,4.49-13.25-18.83-2.38-23.53,13.57-5.88,22.25-16.95,22.25-29.11,0-19.25-22.16-34.86-49.5-34.86S255,195.86,255,215.11Z" transform="translate(-0.48 -0.12)"/><path class="m" d="M263,65.63c0-18.79,35.15-20,35.15-.61,0,11.51-11.52,10.91-13.94,21.82-1.21,5.45-8.48,4.84-8.48-1.22,0-10.3,8.48-10.9,12.12-17.57,2.42-4.85-1.82-9.7-6.67-9.7-10.3,0-6.67,11.52-13.33,11.52-2.43,0-4.85-1.82-4.85-4.24Zm17,38.78c-7.27,0-6.67-10.91,0-10.91C287.24,93.5,287.24,104.41,280,104.41Z" transform="translate(-0.48 -0.12)"/><path class="m" d="M296.4,200.92l24.6-7v30a6.78,6.78,0,1,1-2.19-5V204.84l-25,7.07v19.36a6.8,6.8,0,1,1-2.2-5V207.4a7.06,7.06,0,0,1,4.76-6.48Z" transform="translate(-0.48 -0.12)"/><circle cx="572.02" cy="48.38" r="7.5"/><circle cx="596.02" cy="48.38" r="7.5"/><circle cx="621.02" cy="48.38" r="7.5"/></svg>