<svg width="74" height="74" viewBox="0 0 74 74" fill="none" xmlns="http://www.w3.org/2000/svg">
<rect width="74" height="74" rx="15" fill="url(#paint0_radial_684_3636)"/>
<path d="M28.0312 34.5156V50.3677H7V34.5156C7 28.708 11.708 24 17.5156 24C23.3232 24 28.0312 28.708 28.0312 34.5156Z" fill="white" stroke="black" stroke-width="2"/>
<path d="M48.622 34.5156V50.3677H27.5908V34.5156C27.5908 28.708 32.2988 24 38.1064 24C43.914 24 48.622 28.708 48.622 34.5156Z" fill="white" stroke="black" stroke-width="2"/>
<path d="M46.9983 35.3581C46.9983 37.7224 46.3195 39.7992 45.2985 41.2456C44.2747 42.6959 43.0007 43.4076 41.7574 43.4076C40.5141 43.4076 39.2401 42.6959 38.2164 41.2456C37.1954 39.7992 36.5166 37.7224 36.5166 35.3581C36.5166 32.9938 37.1954 30.917 38.2164 29.4706C39.2401 28.0203 40.5141 27.3086 41.7574 27.3086C43.0007 27.3086 44.2747 28.0203 45.2985 29.4706C46.3195 30.917 46.9983 32.9938 46.9983 35.3581Z" fill="black" stroke="black" stroke-width="3"/>
<path d="M26.4075 35.3581C26.4075 37.7224 25.7286 39.7992 24.7077 41.2456C23.6839 42.6959 22.4099 43.4076 21.1666 43.4076C19.9233 43.4076 18.6493 42.6959 17.6256 41.2456C16.6046 39.7992 15.9258 37.7224 15.9258 35.3581C15.9258 32.9938 16.6046 30.917 17.6256 29.4706C18.6493 28.0203 19.9233 27.3086 21.1666 27.3086C22.4099 27.3086 23.6839 28.0203 24.7077 29.4706C25.7286 30.917 26.4075 32.9938 26.4075 35.3581Z" fill="black" stroke="black" stroke-width="3"/>
<path d="M66.4116 23.009L56.8755 24.8437C56.6408 24.8886 56.4731 25.0903 56.4776 25.3223V36.7677C55.6759 36.3562 54.7375 36.2747 53.8732 36.5412C53.1475 36.7296 52.5016 37.1361 52.0285 37.7027C51.6057 38.1829 51.4488 38.8321 51.6076 39.4448C51.8707 40.3415 52.8735 40.8935 54.0475 40.8935C54.4079 40.8929 54.7667 40.8434 55.1129 40.7466C56.3132 40.4275 57.2371 39.5628 57.4148 38.6279C57.4502 38.4504 57.4667 38.2696 57.4641 38.0887V28.9822L66.0137 27.2655V34.8533C65.212 34.4418 64.2736 34.3602 63.4093 34.6268C61.8178 35.0671 60.805 36.3721 61.147 37.5303C61.4101 38.4271 62.4129 38.979 63.587 38.979C63.9473 38.9785 64.3061 38.929 64.6524 38.8321C65.8526 38.513 66.7766 37.6484 66.9542 36.7134C66.9828 36.5672 66.9982 36.4189 67.0002 36.2701V36.2508V23.4876C67.003 23.3429 66.9382 23.2047 66.8239 23.1118C66.7096 23.0188 66.558 22.9811 66.4116 23.009L66.4116 23.009Z" fill="black"/>
<defs>
<radialGradient id="paint0_radial_684_3636" cx="0" cy="0" r="1" gradientUnits="userSpaceOnUse" gradientTransform="translate(67 5) rotate(131.795) scale(88.5268)">
<stop stop-color="#FFD800"/>
<stop offset="0.909757" stop-color="#E4C100"/>
</radialGradient>
</defs>
</svg>
