<svg width="561" height="561" viewBox="0 0 561 561" fill="none" xmlns="http://www.w3.org/2000/svg">
<path d="M280.002 46.664C341.885 46.664 401.232 71.246 444.992 115.008C488.754 158.766 513.336 218.118 513.336 279.998C513.336 341.878 488.754 401.228 444.992 444.988C401.234 488.75 341.882 513.332 280.002 513.332C218.122 513.332 158.772 488.75 115.012 444.988C71.25 401.23 46.668 341.878 46.668 279.998C46.7383 218.135 71.344 158.828 115.086 115.078C158.832 71.336 218.136 46.73 280.006 46.66L280.002 46.664ZM280.002 0C205.74 0 134.522 29.5 82.012 82.012C29.5 134.52 0 205.742 0 280.002C0 354.262 29.5 425.482 82.012 477.992C134.52 530.504 205.742 560.004 280.002 560.004C354.262 560.004 425.482 530.504 477.992 477.992C530.504 425.484 560.004 354.262 560.004 280.002C560.004 205.742 530.504 134.522 477.992 82.012C425.484 29.5 354.262 0 280.002 0ZM210.002 396.66V163.33L420.002 283.4L210.002 396.66Z" fill="black"/>
</svg>
