<svg class="dwm__logo" viewBox="0 0 228.06 74.38" xmlns="http://www.w3.org/2000/svg"><path d="M17.78 0H0v62.59h18.66c17.88 0 30.13-10.08 30.13-31.58S36.53 0 17.77 0zm16.09 31c0 15-6.81 20.16-16.89 20.16h-2.36V11.42H17C27.06 11.42 33.87 16 33.87 31zM52.73 0h15.11l2 33.31.3 15.74h.4c.88-5.66 2.07-10.46 3.16-15.74L78 15.84h9.28l4 17.47c1.09 5.19 2.17 10 3.16 15.74h.4c.1-5.75.19-10.55.39-15.74L97.07 0h14.12l-7.9 62.59h-15.6L83.93 43.2a87.14 87.14 0 01-1.77-11.9h-.3q-.57 6-1.67 11.9l-3.76 19.39H61.32zm64.58 0h15.2l6.33 22.18 2.16 8.64h.39l2.17-8.64L149.9 0h15.21v62.59h-12.26V43.2c0-7 1.28-22.27 1.88-29h-.3l-4.93 16.7-4.94 15.1h-7.11l-5-15.08-4.64-16.7h-.3c.69 6.72 1.88 22 1.88 29v19.37h-12V0"/><path d="M183.22 74.38h44.84V62.59h-44.84z" fill="#f6d94f"/></svg>