<svg width="119" height="75" viewBox="0 0 119 75" fill="none" xmlns="http://www.w3.org/2000/svg">
<path d="M2.5 30.4456C2.5 15.0117 15.0116 2.5 30.4455 2.5C45.8794 2.5 58.3911 15.0117 58.3911 30.4456V72.5H2.5V30.4456Z" fill="white" stroke="black" stroke-width="5"/>
<mask id="path-2-inside-1_276_2167" fill="white">
<path fill-rule="evenodd" clip-rule="evenodd" d="M41.7975 58.495C51.6402 58.495 59.6193 47.1913 59.6193 33.2475C59.6193 19.3037 51.6402 7.99996 41.7975 7.99996C34.7748 7.99996 28.7008 13.7544 25.7968 22.1165C29.3318 22.2817 32.1442 25.0409 32.1442 28.4205C32.1442 31.9065 29.152 34.7324 25.461 34.7324C24.9592 34.7324 24.4703 34.6802 24.0002 34.5811C24.4896 47.905 32.2706 58.495 41.7975 58.495Z"/>
</mask>
<path fill-rule="evenodd" clip-rule="evenodd" d="M41.7975 58.495C51.6402 58.495 59.6193 47.1913 59.6193 33.2475C59.6193 19.3037 51.6402 7.99996 41.7975 7.99996C34.7748 7.99996 28.7008 13.7544 25.7968 22.1165C29.3318 22.2817 32.1442 25.0409 32.1442 28.4205C32.1442 31.9065 29.152 34.7324 25.461 34.7324C24.9592 34.7324 24.4703 34.6802 24.0002 34.5811C24.4896 47.905 32.2706 58.495 41.7975 58.495Z" fill="black"/>
<path d="M25.7968 22.1165L21.0735 20.4761L18.8778 26.7985L25.5634 27.111L25.7968 22.1165ZM24.0002 34.5811L25.0305 29.6884L18.7686 28.3698L19.0035 34.7647L24.0002 34.5811ZM54.6193 33.2475C54.6193 39.3103 52.8767 44.587 50.3146 48.2168C47.7431 51.8596 44.6584 53.495 41.7975 53.495V63.495C48.7793 63.495 54.6054 59.4786 58.4842 53.9836C62.3723 48.4755 64.6193 41.1285 64.6193 33.2475H54.6193ZM41.7975 13C44.6584 13 47.7431 14.6354 50.3146 18.2782C52.8767 21.9079 54.6193 27.1846 54.6193 33.2475H64.6193C64.6193 25.3665 62.3723 18.0194 58.4842 12.5114C54.6054 7.01642 48.7793 2.99996 41.7975 2.99996V13ZM30.5201 23.7568C33.0573 16.4507 37.7643 13 41.7975 13V2.99996C31.7853 2.99996 24.3442 11.0581 21.0735 20.4761L30.5201 23.7568ZM25.5634 27.111C26.6982 27.164 27.1442 27.9715 27.1442 28.4205H37.1442C37.1442 22.1103 31.9654 17.3993 26.0302 17.1219L25.5634 27.111ZM27.1442 28.4205C27.1442 28.8796 26.6637 29.7324 25.461 29.7324V39.7324C31.6403 39.7324 37.1442 34.9333 37.1442 28.4205H27.1442ZM25.461 29.7324C25.3068 29.7324 25.1632 29.7164 25.0305 29.6884L22.9698 39.4738C23.7775 39.6439 24.6116 39.7324 25.461 39.7324V29.7324ZM41.7975 53.495C39.0245 53.495 36.0525 51.9644 33.5265 48.5569C31.0038 45.154 29.2093 40.1812 28.9968 34.3976L19.0035 34.7647C19.2805 42.305 21.6212 49.2891 25.4931 54.5122C29.3617 59.7306 35.0436 63.495 41.7975 63.495V53.495Z" fill="black" mask="url(#path-2-inside-1_276_2167)"/>
<path d="M60.4207 30.4456C60.4207 15.0117 72.9323 2.5 88.3662 2.5C103.8 2.5 116.312 15.0117 116.312 30.4456V72.5H60.4207V30.4456Z" fill="white" stroke="black" stroke-width="5"/>
<mask id="path-5-inside-2_276_2167" fill="white">
<path fill-rule="evenodd" clip-rule="evenodd" d="M100.798 58.495C110.64 58.495 118.619 47.1913 118.619 33.2475C118.619 19.3037 110.64 7.99996 100.798 7.99996C93.7748 7.99996 87.7008 13.7544 84.7968 22.1165C88.3317 22.2818 91.1439 25.041 91.1439 28.4205C91.1439 31.9065 88.1517 34.7324 84.4607 34.7324C83.9591 34.7324 83.4703 34.6802 83.0002 34.5812C83.4897 47.905 91.2706 58.495 100.798 58.495Z"/>
</mask>
<path fill-rule="evenodd" clip-rule="evenodd" d="M100.798 58.495C110.64 58.495 118.619 47.1913 118.619 33.2475C118.619 19.3037 110.64 7.99996 100.798 7.99996C93.7748 7.99996 87.7008 13.7544 84.7968 22.1165C88.3317 22.2818 91.1439 25.041 91.1439 28.4205C91.1439 31.9065 88.1517 34.7324 84.4607 34.7324C83.9591 34.7324 83.4703 34.6802 83.0002 34.5812C83.4897 47.905 91.2706 58.495 100.798 58.495Z" fill="black"/>
<path d="M84.7968 22.1165L80.0735 20.4762L77.878 26.7983L84.5632 27.111L84.7968 22.1165ZM83.0002 34.5812L84.0303 29.6885L77.7686 28.3702L78.0036 34.7648L83.0002 34.5812ZM113.619 33.2475C113.619 39.3103 111.877 44.587 109.315 48.2168C106.743 51.8596 103.658 53.495 100.798 53.495V63.495C107.779 63.495 113.605 59.4786 117.484 53.9836C121.372 48.4755 123.619 41.1285 123.619 33.2475H113.619ZM100.798 13C103.658 13 106.743 14.6354 109.315 18.2782C111.877 21.9079 113.619 27.1846 113.619 33.2475H123.619C123.619 25.3665 121.372 18.0194 117.484 12.5114C113.605 7.01642 107.779 2.99996 100.798 2.99996V13ZM89.5201 23.7568C92.0574 16.4507 96.7643 13 100.798 13V2.99996C90.7853 2.99996 83.3443 11.0581 80.0735 20.4762L89.5201 23.7568ZM84.5632 27.111C85.698 27.1641 86.1439 27.9715 86.1439 28.4205H96.1439C96.1439 22.1104 90.9654 17.3996 85.0305 17.1219L84.5632 27.111ZM86.1439 28.4205C86.1439 28.8796 85.6634 29.7324 84.4607 29.7324V39.7324C90.64 39.7324 96.1439 34.9333 96.1439 28.4205H86.1439ZM84.4607 29.7324C84.3066 29.7324 84.163 29.7164 84.0303 29.6885L81.9701 39.4739C82.7776 39.6439 83.6115 39.7324 84.4607 39.7324V29.7324ZM100.798 53.495C98.0245 53.495 95.0525 51.9644 92.5265 48.5569C90.0039 45.154 88.2093 40.1812 87.9968 34.3976L78.0036 34.7648C78.2806 42.305 80.6212 49.2892 84.4932 54.5122C88.3617 59.7306 94.0437 63.495 100.798 63.495V53.495Z" fill="black" mask="url(#path-5-inside-2_276_2167)"/>
</svg>
