<svg width="108" height="109" viewBox="0 0 108 109" fill="none" xmlns="http://www.w3.org/2000/svg">
<path d="M53.95 107.11C82.9173 107.11 106.4 83.6273 106.4 54.66C106.4 25.6926 82.9173 2.20996 53.95 2.20996C24.9827 2.20996 1.5 25.6926 1.5 54.66C1.5 83.6273 24.9827 107.11 53.95 107.11Z" fill="#ADADAD" stroke="#1D1D1B" stroke-width="3" stroke-miterlimit="10"/>
<path d="M28.3295 38.41C27.9317 38.41 27.5502 38.2519 27.2689 37.9706C26.9876 37.6893 26.8295 37.3078 26.8295 36.91C26.7682 35.4513 26.1456 34.0728 25.0918 33.0624C24.038 32.0519 22.6345 31.4878 21.1745 31.4878C19.7146 31.4878 18.3111 32.0519 17.2573 33.0624C16.2035 34.0728 15.5809 35.4513 15.5195 36.91C15.5195 37.3078 15.3615 37.6893 15.0802 37.9706C14.7989 38.2519 14.4174 38.41 14.0195 38.41C13.6217 38.41 13.2402 38.2519 12.9589 37.9706C12.6776 37.6893 12.5195 37.3078 12.5195 36.91C12.5958 34.6654 13.5411 32.5383 15.1559 30.9775C16.7707 29.4167 18.9287 28.5442 21.1745 28.5442C23.4204 28.5442 25.5784 29.4167 27.1931 30.9775C28.8079 32.5383 29.7532 34.6654 29.8295 36.91C29.8295 37.3078 29.6715 37.6893 29.3902 37.9706C29.1089 38.2519 28.7274 38.41 28.3295 38.41Z" fill="#1D1D1B"/>
<path d="M56.94 38.65C56.5422 38.65 56.1606 38.492 55.8793 38.2107C55.598 37.9294 55.44 37.5479 55.44 37.15C55.4721 36.3874 55.3496 35.6262 55.0798 34.9121C54.8101 34.198 54.3987 33.5459 53.8705 32.995C53.3422 32.444 52.7079 32.0056 52.0058 31.7061C51.3037 31.4066 50.5483 31.2522 49.785 31.2522C49.0217 31.2522 48.2663 31.4066 47.5642 31.7061C46.8621 32.0056 46.2278 32.444 45.6995 32.995C45.1713 33.5459 44.7599 34.198 44.4902 34.9121C44.2204 35.6262 44.0979 36.3874 44.13 37.15C44.13 37.5479 43.972 37.9294 43.6907 38.2107C43.4094 38.492 43.0278 38.65 42.63 38.65C42.2322 38.65 41.8506 38.492 41.5693 38.2107C41.288 37.9294 41.13 37.5479 41.13 37.15C41.0905 35.9887 41.2852 34.8313 41.7023 33.7467C42.1195 32.6622 42.7507 31.6727 43.5583 30.8372C44.3659 30.0017 45.3334 29.3372 46.4031 28.8834C47.4729 28.4297 48.623 28.1958 49.785 28.1958C50.947 28.1958 52.0971 28.4297 53.1669 28.8834C54.2366 29.3372 55.2041 30.0017 56.0117 30.8372C56.8193 31.6727 57.4505 32.6622 57.8677 33.7467C58.2848 34.8313 58.4795 35.9887 58.44 37.15C58.44 37.5479 58.282 37.9294 58.0007 38.2107C57.7194 38.492 57.3378 38.65 56.94 38.65Z" fill="#1D1D1B"/>
<path d="M35.4801 53.8099C33.185 53.8073 30.9849 52.8937 29.363 51.2699C27.7411 49.6461 26.8301 47.4449 26.8301 45.1499C26.8301 44.7521 26.9881 44.3705 27.2694 44.0892C27.5507 43.8079 27.9323 43.6499 28.3301 43.6499C28.7279 43.6499 29.1094 43.8079 29.3907 44.0892C29.672 44.3705 29.8301 44.7521 29.8301 45.1499C29.8301 45.8919 29.9762 46.6266 30.2602 47.3121C30.5441 47.9976 30.9603 48.6204 31.4849 49.1451C32.0096 49.6697 32.6324 50.0859 33.3179 50.3698C34.0034 50.6538 34.7381 50.7999 35.4801 50.7999C36.222 50.7999 36.9567 50.6538 37.6422 50.3698C38.3277 50.0859 38.9506 49.6697 39.4752 49.1451C39.9999 48.6204 40.4161 47.9976 40.7 47.3121C40.9839 46.6266 41.1301 45.8919 41.1301 45.1499C41.1301 44.7521 41.2881 44.3705 41.5694 44.0892C41.8507 43.8079 42.2323 43.6499 42.6301 43.6499C43.0279 43.6499 43.4094 43.8079 43.6907 44.0892C43.972 44.3705 44.1301 44.7521 44.1301 45.1499C44.1301 47.4449 43.2191 49.6461 41.5972 51.2699C39.9753 52.8937 37.7751 53.8073 35.4801 53.8099Z" fill="#1D1D1B"/>
<path d="M54.9902 3.68994C47.6102 3.68994 40.2602 4.34994 33.9902 7.76994C36.3115 7.47951 38.6538 7.39251 40.9902 7.50994C54.9008 7.50994 68.2417 13.0359 78.078 22.8722C87.9143 32.7085 93.4402 46.0493 93.4402 59.9599C93.4402 81.5499 82.4402 96.1999 63.4402 104.85C79.6402 102.07 102.8 87.1699 104.73 57.0399C106.61 28.1499 82.8602 3.68994 54.9902 3.68994Z" fill="#616160"/>
</svg>
