<svg width="73" height="73" viewBox="0 0 73 73" fill="none" xmlns="http://www.w3.org/2000/svg">
<path d="M62.2878 10.6693C56.1112 4.50339 47.9307 0.754267 39.2276 0.10211C30.5246 -0.550047 21.8757 1.93742 14.8507 7.11358C7.82428 12.2902 2.88532 19.8127 0.928991 28.3179C-1.02748 36.8231 0.128528 45.7481 4.18693 53.4728L1.56551 63.2611L1.56606 63.2616C0.95668 65.5514 1.61439 67.9917 3.29145 69.6653C4.96521 71.3424 7.40547 72.0001 9.69513 71.3907L19.4835 68.7693L19.484 68.7698C24.7156 71.5451 30.5499 72.9926 36.4719 72.9838C38.3151 72.9833 40.1559 72.85 41.9802 72.5855C50.9275 71.2268 59.0506 66.5923 64.7744 59.5821C70.4976 52.5712 73.4122 43.6849 72.9529 34.6462C72.4935 25.6078 68.6923 17.0625 62.288 10.6689L62.2878 10.6693ZM66.3357 39.2058C65.7374 45.8889 62.9061 52.1754 58.2982 57.0527C53.6899 61.9299 47.5739 65.1129 40.9348 66.0889C34.2966 67.0648 27.5231 65.7772 21.7071 62.4326C21.2011 62.146 20.6289 61.9976 20.0479 62.0015C19.7613 61.9688 19.4718 61.9688 19.1852 62.0015L8.10252 64.9879L11.0888 53.9052C11.3177 53.0536 11.1983 52.1465 10.7572 51.3833C7.6065 45.9406 6.25441 39.6419 6.89434 33.3857C7.53371 27.1292 10.1324 21.2343 14.3191 16.5414C18.5063 11.8492 24.068 8.5979 30.2106 7.25192C36.3537 5.90597 42.7652 6.53366 48.531 9.04556C54.2965 11.5575 59.1221 15.8259 62.3189 21.242C65.5162 26.6575 66.9216 32.9446 66.3356 39.2055L66.3357 39.2058Z" fill="white"/>
<path d="M41.4489 54.734C41.4489 57.4832 39.2202 59.7113 36.4717 59.7113C33.7231 59.7113 31.4945 57.4832 31.4945 54.734C31.4945 51.9855 33.7231 49.7568 36.4717 49.7568C39.2202 49.7568 41.4489 51.9855 41.4489 54.734Z" fill="white"/>
<path d="M38.7285 13.2578H34.2157C31.2944 13.2578 28.4919 14.4182 26.4261 16.4842C24.3603 18.55 23.1997 21.3525 23.1997 24.2738V26.5302C23.1997 27.7156 23.8319 28.811 24.8584 29.4037C25.885 29.9965 27.1504 29.9965 28.1769 29.4037C29.2035 28.811 29.8356 27.7156 29.8356 26.5302V24.2738C29.8356 23.1123 30.2973 21.9979 31.1188 21.177C31.9398 20.3554 33.0541 19.8938 34.2156 19.8938H38.7284C40.1105 19.9282 41.3965 20.6087 42.2025 21.7314C43.0091 22.854 43.2429 24.29 42.8341 25.6103C42.4253 26.9307 41.4215 27.9839 40.1222 28.455C38.092 29.1255 36.3255 30.4203 35.0739 32.1541C33.8229 33.8877 33.1509 35.9726 33.1541 38.1107V39.8026C33.1541 40.9881 33.7863 42.0835 34.8128 42.6762C35.8394 43.2689 37.1048 43.2689 38.1313 42.6762C39.1579 42.0835 39.79 40.9881 39.79 39.8026V38.1107C39.79 37.3724 40.025 36.6531 40.4605 36.0565C40.8955 35.4605 41.5093 35.0177 42.2125 34.7928C45.5604 33.6796 48.1758 31.0348 49.2506 27.6746C50.326 24.3145 49.7322 20.6427 47.6519 17.793C45.5721 14.9434 42.2564 13.2579 38.7284 13.2579L38.7285 13.2578Z" fill="white"/>
</svg>
