<svg width="150" height="150" viewBox="0 0 150 150" fill="none" xmlns="http://www.w3.org/2000/svg">
<path d="M147.61 74.6601C130.81 82.4202 129.24 89.8102 141.87 103.08C123.55 103.26 119.43 109.32 126.22 126.28C109.22 119.49 103.22 123.61 103.02 141.93C89.7498 129.3 82.3599 130.87 74.5999 147.67C66.8399 130.87 59.4499 129.3 46.1799 141.93C45.9999 123.61 39.9398 119.49 22.9798 126.28C29.7698 109.28 25.6498 103.28 7.32985 103.08C19.9599 89.8102 18.3898 82.4202 1.58984 74.6601C18.3898 66.9001 19.9599 59.5001 7.32985 46.2401C25.6498 46.0501 29.7698 40.0001 22.9798 23.0301C39.9798 29.8301 45.9799 25.7101 46.1799 7.39015C59.4199 20.0201 66.8098 18.4501 74.6098 1.65015C82.3699 18.4501 89.7599 20.0201 103.03 7.39015C103.21 25.7101 109.27 29.8301 126.23 23.0301C119.44 40.0301 123.56 46.0301 141.88 46.2401C129.21 59.5001 130.78 66.9001 147.61 74.6601Z" fill="#FFD800"/>
<path d="M74.6099 149.15C74.3238 149.15 74.0438 149.068 73.8028 148.914C73.5619 148.759 73.37 148.54 73.2499 148.28C69.4599 140.08 65.9099 135.92 62.0799 135.19C58.2499 134.46 53.5699 136.95 47.2299 143C47.0163 143.199 46.7494 143.332 46.4617 143.383C46.174 143.434 45.8777 143.4 45.6088 143.286C45.34 143.171 45.1101 142.981 44.9469 142.739C44.7838 142.497 44.6945 142.212 44.6899 141.92C44.5999 133.06 43.1199 127.97 40.0199 125.92C36.9199 123.87 31.6999 124.41 23.5399 127.68C23.262 127.797 22.9552 127.828 22.6596 127.768C22.364 127.709 22.0932 127.561 21.8827 127.345C21.6721 127.129 21.5315 126.855 21.4793 126.558C21.4271 126.261 21.4656 125.955 21.5899 125.68C24.8599 117.52 25.4199 112.28 23.3499 109.2C21.2799 106.12 16.1899 104.62 7.34989 104.53C7.05861 104.524 6.77523 104.434 6.53391 104.271C6.2926 104.108 6.10367 103.878 5.98989 103.61C5.87378 103.341 5.83935 103.044 5.89092 102.756C5.9425 102.468 6.07778 102.202 6.27989 101.99C12.3299 95.6501 14.8099 90.9301 14.0799 87.1401C13.3499 83.3501 9.19989 79.7601 0.999887 75.9701C0.741036 75.8489 0.521873 75.6568 0.367868 75.4161C0.213862 75.1754 0.131344 74.8958 0.129892 74.6101C0.128909 74.3237 0.210434 74.0432 0.364724 73.802C0.519015 73.5608 0.739532 73.3692 0.999887 73.2501C9.19989 69.4601 13.3499 65.9101 14.0799 62.0801C14.8099 58.2501 12.3299 53.5701 6.27989 47.2201C6.07749 47.0106 5.94187 46.7458 5.89024 46.4591C5.83861 46.1725 5.87329 45.877 5.98989 45.6101C6.10367 45.3419 6.2926 45.1123 6.53391 44.9491C6.77523 44.7858 7.05861 44.6959 7.34989 44.6901C16.2199 44.6001 21.3499 43.1201 23.3499 40.0201C25.3499 36.9201 24.8599 31.7001 21.5899 23.5401C21.4656 23.2652 21.4271 22.9593 21.4793 22.6623C21.5315 22.3652 21.6721 22.0908 21.8827 21.8749C22.0932 21.6589 22.364 21.5115 22.6596 21.4517C22.9552 21.392 23.262 21.4228 23.5399 21.5401C31.6999 24.8101 36.9299 25.3701 40.0199 23.3001C43.1099 21.2301 44.5999 16.1301 44.6899 7.30006C44.6964 7.00878 44.7871 6.72562 44.9509 6.4847C45.1147 6.24379 45.3448 6.05542 45.6133 5.94231C45.8818 5.82921 46.1773 5.79619 46.4641 5.84725C46.751 5.8983 47.0169 6.03125 47.2299 6.23006C53.5699 12.2301 58.2899 14.7501 62.0799 14.0301C65.8699 13.3101 69.4199 9.21006 73.2099 1.02006C73.3304 0.760981 73.5225 0.541723 73.7634 0.388087C74.0043 0.234452 74.2841 0.152832 74.5699 0.152832C74.8556 0.152832 75.1354 0.234452 75.3764 0.388087C75.6173 0.541723 75.8093 0.760981 75.9299 1.02006C79.7199 9.21006 83.2699 13.3701 87.0999 14.1001C90.9299 14.8301 95.6099 12.3501 101.95 6.30006C102.163 6.10125 102.429 5.9683 102.716 5.91725C103.003 5.86619 103.298 5.89921 103.566 6.01231C103.835 6.12542 104.065 6.31379 104.229 6.5547C104.393 6.79562 104.483 7.07878 104.49 7.37006C104.58 16.2301 106.06 21.3701 109.16 23.3701C112.26 25.3701 117.48 24.8801 125.64 21.6101C125.92 21.4764 126.234 21.4328 126.54 21.4852C126.846 21.5377 127.128 21.6836 127.347 21.903C127.566 22.1223 127.712 22.4042 127.765 22.71C127.817 23.0157 127.774 23.3302 127.64 23.6101C124.37 31.7701 123.81 37.0001 125.88 40.0901C127.95 43.1801 133.05 44.6701 141.88 44.7601C142.171 44.7659 142.455 44.8558 142.696 45.0191C142.937 45.1823 143.126 45.4119 143.24 45.6801C143.356 45.947 143.391 46.2425 143.34 46.5291C143.288 46.8158 143.152 47.0806 142.95 47.2901C136.9 53.6401 134.42 58.3601 135.15 62.1501C135.88 65.9401 140.03 69.5301 148.23 73.3201C148.49 73.4392 148.711 73.6308 148.865 73.872C149.019 74.1132 149.101 74.3937 149.1 74.6801C149.098 74.9658 149.016 75.2454 148.862 75.4861C148.708 75.7268 148.489 75.9189 148.23 76.0401C140.03 79.8301 135.88 83.3801 135.14 87.2101C134.4 91.0401 136.9 95.7201 142.95 102.06C143.152 102.272 143.287 102.538 143.339 102.826C143.39 103.114 143.356 103.411 143.24 103.68C143.126 103.948 142.937 104.178 142.696 104.341C142.455 104.504 142.171 104.594 141.88 104.6C133.02 104.69 127.88 106.17 125.88 109.27C123.88 112.37 124.37 117.59 127.64 125.75C127.774 126.03 127.817 126.344 127.765 126.65C127.712 126.956 127.566 127.238 127.347 127.457C127.128 127.677 126.846 127.822 126.54 127.875C126.234 127.927 125.92 127.884 125.64 127.75C117.48 124.48 112.25 123.92 109.16 125.99C106.07 128.06 104.58 133.15 104.49 141.99C104.485 142.282 104.396 142.567 104.233 142.809C104.07 143.051 103.84 143.241 103.571 143.356C103.302 143.47 103.006 143.504 102.718 143.453C102.43 143.402 102.163 143.269 101.95 143.07C95.6099 137.02 90.8799 134.54 87.0999 135.26C83.3199 135.98 79.7199 140.15 75.9299 148.35C75.803 148.59 75.6132 148.792 75.3807 148.933C75.1482 149.074 74.8818 149.149 74.6099 149.15ZM60.7199 132.07C61.3641 132.07 62.007 132.13 62.6399 132.25C67.0499 133.09 70.7999 136.82 74.6399 144.25C78.4499 136.85 82.1999 133.12 86.6399 132.25C91.0799 131.38 95.6399 133.4 101.69 138.61C102.14 130.55 104 125.8 107.59 123.4C111.18 121 116.21 121.09 123.73 123.7C121.12 116.17 121.05 111.13 123.44 107.56C125.83 103.99 130.59 102.11 138.64 101.66C133.43 95.6601 131.45 90.9301 132.28 86.6601C133.11 82.3901 136.85 78.4901 144.28 74.6601C136.88 70.8501 133.15 67.1001 132.28 62.6601C131.41 58.2201 133.43 53.6601 138.64 47.6601C130.59 47.2101 125.84 45.3401 123.44 41.7601C121.04 38.1801 121.02 33.1501 123.61 25.6001C116.09 28.2101 111.04 28.2801 107.47 25.8901C103.9 23.5001 102.02 18.7401 101.57 10.6901C95.5699 15.9001 90.8399 17.8701 86.5199 17.0501C82.1999 16.2301 78.3599 12.4801 74.5199 5.05006C70.7099 12.4501 66.9599 16.1801 62.5199 17.0501C58.0799 17.9201 53.5199 15.9001 47.4699 10.6901C47.0199 18.7401 45.1599 23.4901 41.5699 25.8901C37.9799 28.2901 32.9499 28.2101 25.4299 25.6001C28.0399 33.1201 28.1099 38.1701 25.7199 41.7401C23.3299 45.3101 18.6099 47.1501 10.6099 47.6401C15.8199 53.6401 17.7999 58.3701 16.9699 62.6401C16.1399 66.9101 12.3999 70.8001 4.96989 74.6401C12.3699 78.4401 16.0999 82.2001 16.9699 86.6401C17.8399 91.0801 15.8199 95.6401 10.6099 101.64C18.6099 102.09 23.4099 103.95 25.8099 107.54C28.2099 111.13 28.1299 116.15 25.5199 123.68C33.0399 121.07 38.0899 121 41.6599 123.38C45.2299 125.76 47.1099 130.53 47.5599 138.59C52.6899 134.15 56.8799 132.09 60.6799 132.09L60.7199 132.07Z" fill="#1D1D1B"/>
<path d="M61.1499 62.67C60.9479 62.6754 60.7469 62.64 60.5589 62.5658C60.3709 62.4915 60.1999 62.3801 60.0561 62.2381C59.9122 62.0962 59.7986 61.9266 59.7219 61.7396C59.6453 61.5527 59.6072 61.3521 59.6099 61.15C59.642 60.3874 59.5195 59.6262 59.2498 58.9121C58.98 58.198 58.5686 57.5459 58.0404 56.995C57.5121 56.444 56.8778 56.0056 56.1757 55.7061C55.4737 55.4066 54.7182 55.2522 53.9549 55.2522C53.1916 55.2522 52.4362 55.4066 51.7341 55.7061C51.032 56.0056 50.3977 56.444 49.8695 56.995C49.3412 57.5459 48.9298 58.198 48.6601 58.9121C48.3904 59.6262 48.2678 60.3874 48.2999 61.15C48.2999 61.5479 48.1419 61.9294 47.8606 62.2107C47.5793 62.492 47.1977 62.65 46.7999 62.65C46.4021 62.65 46.0206 62.492 45.7393 62.2107C45.4579 61.9294 45.2999 61.5479 45.2999 61.15C45.2604 59.9887 45.4551 58.8313 45.8723 57.7467C46.2894 56.6622 46.9206 55.6727 47.7282 54.8372C48.5358 54.0017 49.5033 53.3372 50.573 52.8834C51.6428 52.4297 52.7929 52.1958 53.9549 52.1958C55.1169 52.1958 56.2671 52.4297 57.3368 52.8834C58.4066 53.3372 59.374 54.0017 60.1816 54.8372C60.9892 55.6727 61.6204 56.6622 62.0376 57.7467C62.4548 58.8313 62.6494 59.9887 62.6099 61.15C62.6153 61.5445 62.4651 61.9252 62.1919 62.2097C61.9186 62.4942 61.5443 62.6596 61.1499 62.67Z" fill="#1D1D1B"/>
<path d="M89.7602 62.8999C89.3624 62.8999 88.9808 62.7419 88.6995 62.4606C88.4182 62.1793 88.2602 61.7978 88.2602 61.3999C88.1988 59.9413 87.5762 58.5628 86.5224 57.5523C85.4686 56.5419 84.0651 55.9778 82.6052 55.9778C81.1452 55.9778 79.7418 56.5419 78.688 57.5523C77.6342 58.5628 77.0115 59.9413 76.9502 61.3999C76.9502 61.7978 76.7922 62.1793 76.5109 62.4606C76.2296 62.7419 75.848 62.8999 75.4502 62.8999C75.0524 62.8999 74.6708 62.7419 74.3895 62.4606C74.1082 62.1793 73.9502 61.7978 73.9502 61.3999C74.0265 59.1554 74.9718 57.0283 76.5866 55.4675C78.2014 53.9066 80.3594 53.0342 82.6052 53.0342C84.851 53.0342 87.009 53.9066 88.6238 55.4675C90.2386 57.0283 91.1839 59.1554 91.2602 61.3999C91.2602 61.7978 91.1022 62.1793 90.8209 62.4606C90.5396 62.7419 90.158 62.8999 89.7602 62.8999Z" fill="#1D1D1B"/>
<path d="M68.3004 78.0702C67.1606 78.0741 66.0312 77.853 64.9771 77.4196C63.923 76.9861 62.9647 76.3489 62.1574 75.5443C61.3501 74.7398 60.7095 73.7838 60.2724 72.7311C59.8353 71.6785 59.6103 70.5499 59.6104 69.4102C59.6104 69.0123 59.7684 68.6308 60.0497 68.3495C60.331 68.0682 60.7125 67.9102 61.1104 67.9102C61.5082 67.9102 61.8897 68.0682 62.171 68.3495C62.4523 68.6308 62.6104 69.0123 62.6104 69.4102C62.6104 70.9086 63.2056 72.3457 64.2652 73.4053C65.3248 74.4649 66.7619 75.0602 68.2603 75.0602C69.7588 75.0602 71.1959 74.4649 72.2555 73.4053C73.3151 72.3457 73.9104 70.9086 73.9104 69.4102C73.9104 69.0123 74.0684 68.6308 74.3497 68.3495C74.631 68.0682 75.0125 67.9102 75.4104 67.9102C75.8082 67.9102 76.1897 68.0682 76.471 68.3495C76.7523 68.6308 76.9104 69.0123 76.9104 69.4102C76.9104 71.6983 76.0049 73.8935 74.3916 75.5161C72.7783 77.1387 70.5885 78.0569 68.3004 78.0702Z" fill="#1D1D1B"/>
<path d="M74.6103 120.93C65.4562 120.932 56.507 118.219 48.8948 113.135C41.2825 108.05 35.3492 100.822 31.8451 92.3653C28.341 83.9084 27.4237 74.6022 29.2091 65.6238C30.9945 56.6454 35.4025 48.3982 41.8754 41.9252C48.3484 35.4523 56.5956 31.0443 65.574 29.2589C74.5524 27.4735 83.8586 28.3908 92.3155 31.8949C100.773 35.399 108 41.3323 113.085 48.9446C118.169 56.5568 120.882 65.506 120.88 74.6601C120.867 86.9276 115.988 98.6889 107.314 107.363C98.6391 116.038 86.8778 120.917 74.6103 120.93ZM74.6103 31.3801C66.0499 31.3782 57.6812 33.9148 50.5625 38.6693C43.4439 43.4237 37.895 50.1825 34.6177 58.0907C31.3404 65.9989 30.4819 74.7014 32.1507 83.0975C33.8196 91.4937 37.9408 99.2064 43.9932 105.26C50.0456 111.314 57.7574 115.437 66.1531 117.108C74.5489 118.779 83.2516 117.922 91.1606 114.647C99.0695 111.371 105.83 105.824 110.586 98.7063C115.342 91.5887 117.88 83.2205 117.88 74.6601C117.867 63.1874 113.304 52.1881 105.193 44.0747C97.0813 35.9613 86.0831 31.396 74.6103 31.3801Z" fill="#1D1D1B"/>
</svg>
