<svg width="95" height="95" viewBox="0 0 95 95" fill="none" xmlns="http://www.w3.org/2000/svg">
<path d="M47.5 0C21.28 0 0 21.28 0 47.5C0 73.72 21.28 95 47.5 95C73.72 95 95 73.72 95 47.5C95 21.28 73.72 0 47.5 0ZM75.5878 74.6378L75.1126 75.1129C59.9759 90.5027 35.2754 90.6929 19.8854 75.588C4.49557 60.4832 4.3054 35.7508 19.4103 20.3608L19.8854 19.8857C35.0221 4.49584 59.7226 4.30567 75.1126 19.4105C90.5025 34.5154 90.6926 59.2478 75.5878 74.6378Z" fill="#A70000"/>
<path d="M70.8379 62.0671C72.1996 63.4289 72.1996 65.6137 70.8379 66.9437L66.9427 70.8388C65.5809 72.2006 63.3961 72.2006 62.0662 70.8388L47.4994 56.2721L32.9327 70.8388C31.5709 72.2006 29.3861 72.2006 28.0561 70.8388L24.161 66.9437C22.7992 65.5819 22.7992 63.3971 24.161 62.0671L38.7277 47.5004L24.161 32.9337C22.7992 31.5719 22.7992 29.3871 24.161 28.0571L28.0561 24.162C29.4179 22.8002 31.6027 22.8002 32.9327 24.162L47.4994 38.7287L62.0662 24.162C63.4279 22.8002 65.6127 22.8002 66.9427 24.162L70.8379 28.0571C72.1996 29.4189 72.1996 31.6037 70.8379 32.9337L56.2711 47.5004L70.8379 62.0671Z" fill="#A70000"/>
</svg>
